<svg width="42" height="24" viewBox="0 0 42 24" fill="none" xmlns="http://www.w3.org/2000/svg">
<g clip-path="url(#clip0_1505_11805)">
<rect width="42" height="24" rx="3.71613" fill="#F9F9F9"/>
<g clip-path="url(#clip1_1505_11805)">
<path d="M25.3302 15.6882C20.4726 18 17.458 16.0658 15.5282 14.891C15.4088 14.817 15.2058 14.9083 15.3819 15.1106C16.0248 15.8901 18.1318 17.7691 20.8819 17.7691C23.634 17.7691 25.2712 16.2674 25.476 16.0054C25.6795 15.7457 25.5358 15.6024 25.3302 15.6882H25.3302ZM26.6945 14.9348C26.564 14.765 25.9013 14.7333 25.4842 14.7845C25.0664 14.8343 24.4394 15.0896 24.4939 15.2429C24.5219 15.3003 24.579 15.2746 24.8659 15.2488C25.1537 15.22 25.9598 15.1183 26.1278 15.3379C26.2966 15.559 25.8707 16.6123 25.7929 16.7821C25.7178 16.952 25.8216 16.9958 25.9628 16.8827C26.102 16.7696 26.354 16.4767 26.5232 16.0622C26.6911 15.6455 26.7936 15.0642 26.6945 14.9348Z" fill="#FF9900"/>
<path fill-rule="evenodd" clip-rule="evenodd" d="M22.0641 10.971C22.0641 11.5776 22.0794 12.0834 21.7728 12.6221C21.5254 13.0601 21.1334 13.3295 20.6954 13.3295C20.0976 13.3295 19.7494 12.874 19.7494 12.2017C19.7494 10.8746 20.9385 10.6338 22.0641 10.6338V10.971ZM23.6342 14.766C23.5313 14.858 23.3824 14.8646 23.2663 14.8032C22.7495 14.374 22.6575 14.1748 22.3729 13.7652C21.5188 14.6368 20.9144 14.8974 19.8063 14.8974C18.4968 14.8974 17.4763 14.0893 17.4763 12.471C17.4763 11.2075 18.1618 10.3469 19.1362 9.92645C19.9815 9.55413 21.1619 9.48845 22.0641 9.38556V9.18407C22.0641 8.81397 22.0925 8.37601 21.8758 8.05631C21.6852 7.76943 21.3217 7.65117 21.002 7.65117C20.4085 7.65117 19.8786 7.95554 19.7494 8.58622C19.7231 8.7264 19.6202 8.86437 19.48 8.87093L17.969 8.70891C17.842 8.68038 17.7019 8.57749 17.7369 8.38256C18.0851 6.55188 19.7384 6 21.2187 6C21.9764 6 22.9662 6.20149 23.5641 6.77525C24.3218 7.48255 24.2495 8.42637 24.2495 9.45341V11.8798C24.2495 12.609 24.5517 12.9287 24.8364 13.3229C24.9371 13.463 24.959 13.6317 24.832 13.7368C24.5145 14.0017 23.9495 14.4945 23.6385 14.7704L23.6342 14.766" fill="black"/>
<path d="M25.3302 15.6882C20.4726 18 17.458 16.0658 15.5282 14.891C15.4088 14.817 15.2058 14.9083 15.3819 15.1106C16.0248 15.8901 18.1318 17.7691 20.8819 17.7691C23.634 17.7691 25.2712 16.2674 25.476 16.0054C25.6795 15.7457 25.5358 15.6024 25.3302 15.6882H25.3302ZM26.6945 14.9348C26.564 14.765 25.9013 14.7333 25.4842 14.7845C25.0664 14.8343 24.4394 15.0896 24.4939 15.2429C24.5219 15.3003 24.579 15.2746 24.8659 15.2488C25.1537 15.22 25.9598 15.1183 26.1278 15.3379C26.2966 15.559 25.8707 16.6123 25.7929 16.7821C25.7178 16.952 25.8216 16.9958 25.9628 16.8827C26.102 16.7696 26.354 16.4767 26.5232 16.0622C26.6911 15.6455 26.7936 15.0642 26.6945 14.9348Z" fill="#FF9900"/>
<path fill-rule="evenodd" clip-rule="evenodd" d="M22.0641 10.971C22.0641 11.5776 22.0794 12.0834 21.7728 12.6221C21.5254 13.0601 21.1334 13.3295 20.6954 13.3295C20.0976 13.3295 19.7494 12.874 19.7494 12.2017C19.7494 10.8746 20.9385 10.6338 22.0641 10.6338V10.971ZM23.6342 14.766C23.5313 14.858 23.3824 14.8646 23.2663 14.8032C22.7495 14.374 22.6575 14.1748 22.3729 13.7652C21.5188 14.6368 20.9144 14.8974 19.8063 14.8974C18.4968 14.8974 17.4763 14.0893 17.4763 12.471C17.4763 11.2075 18.1618 10.3469 19.1362 9.92645C19.9815 9.55413 21.1619 9.48845 22.0641 9.38556V9.18407C22.0641 8.81397 22.0925 8.37601 21.8758 8.05631C21.6852 7.76943 21.3217 7.65117 21.002 7.65117C20.4085 7.65117 19.8786 7.95554 19.7494 8.58622C19.7231 8.7264 19.6202 8.86437 19.48 8.87093L17.969 8.70891C17.842 8.68038 17.7019 8.57749 17.7369 8.38256C18.0851 6.55188 19.7384 6 21.2187 6C21.9764 6 22.9662 6.20149 23.5641 6.77525C24.3218 7.48255 24.2495 8.42637 24.2495 9.45341V11.8798C24.2495 12.609 24.5517 12.9287 24.8364 13.3229C24.9371 13.463 24.959 13.6317 24.832 13.7368C24.5145 14.0017 23.9495 14.4945 23.6385 14.7704L23.6342 14.766" fill="black"/>
</g>
</g>
<defs>
<clipPath id="clip0_1505_11805">
<rect width="42" height="24" rx="3.71613" fill="white"/>
</clipPath>
<clipPath id="clip1_1505_11805">
<rect width="12" height="12" fill="white" transform="translate(15 6)"/>
</clipPath>
</defs>
</svg>
