<svg width="14" height="15" viewBox="0 0 14 15" fill="none" xmlns="http://www.w3.org/2000/svg">
<path d="M5.3429 1.18059C4.93373 1.52928 4.42499 1.74001 3.8891 1.78278C2.63855 1.88257 1.64551 2.87561 1.54572 4.12616C1.50295 4.66205 1.29222 5.17079 0.943532 5.57996C0.129825 6.5348 0.129825 7.93916 0.943532 8.894C1.29222 9.30317 1.50295 9.81191 1.54572 10.3478C1.64551 11.5983 2.63855 12.5914 3.8891 12.6912C4.42499 12.7339 4.93373 12.9447 5.3429 13.2934C6.29773 14.1071 7.7021 14.1071 8.65694 13.2934C9.06611 12.9447 9.57485 12.7339 10.1107 12.6912C11.3613 12.5914 12.3543 11.5983 12.4541 10.3478C12.4969 9.81191 12.7076 9.30317 13.0563 8.894C13.87 7.93916 13.87 6.5348 13.0563 5.57996C12.7076 5.17079 12.4969 4.66205 12.4541 4.12616C12.3543 2.87561 11.3613 1.88257 10.1107 1.78278C9.57485 1.74001 9.06611 1.52928 8.65694 1.18059C7.7021 0.366886 6.29773 0.366886 5.3429 1.18059Z" fill="#2998B5"/>
<path d="M4.99992 7.23698L6.33325 8.57031L9.33325 5.57031M3.8891 1.78278C4.42499 1.74001 4.93373 1.52928 5.3429 1.18059C6.29773 0.366886 7.7021 0.366886 8.65694 1.18059C9.06611 1.52928 9.57485 1.74001 10.1107 1.78278C11.3613 1.88257 12.3543 2.87561 12.4541 4.12616C12.4969 4.66205 12.7076 5.17079 13.0563 5.57996C13.87 6.5348 13.87 7.93916 13.0563 8.894C12.7076 9.30317 12.4969 9.81191 12.4541 10.3478C12.3543 11.5983 11.3613 12.5914 10.1107 12.6912C9.57485 12.7339 9.06611 12.9447 8.65694 13.2934C7.7021 14.1071 6.29773 14.1071 5.3429 13.2934C4.93373 12.9447 4.42499 12.7339 3.8891 12.6912C2.63855 12.5914 1.64551 11.5983 1.54572 10.3478C1.50295 9.81191 1.29222 9.30317 0.943532 8.894C0.129825 7.93916 0.129825 6.5348 0.943532 5.57996C1.29222 5.17079 1.50295 4.66205 1.54572 4.12616C1.64551 2.87561 2.63855 1.88257 3.8891 1.78278Z" stroke="white" stroke-width="0.666667" stroke-linecap="round" stroke-linejoin="round"/>
</svg>
