<svg width="20" height="21" viewBox="0 0 20 21" fill="none" xmlns="http://www.w3.org/2000/svg">
<path d="M15.25 0.5L19.25 4.5M19.25 4.5L15.25 8.5M19.25 4.5H6.05C4.36984 4.5 3.52976 4.5 2.88803 4.82698C2.32354 5.1146 1.8646 5.57354 1.57698 6.13803C1.25 6.77976 1.25 7.61984 1.25 9.3V9.5M1.25 16.5H14.45C16.1302 16.5 16.9702 16.5 17.612 16.173C18.1765 15.8854 18.6354 15.4265 18.923 14.862C19.25 14.2202 19.25 13.3802 19.25 11.7V11.5M1.25 16.5L5.25 20.5M1.25 16.5L5.25 12.5" stroke="#0081A3" stroke-linecap="round" stroke-linejoin="round"/>
</svg>
