<svg width="20" height="19" viewBox="0 0 20 19" fill="none" xmlns="http://www.w3.org/2000/svg">
<path d="M6.65 0.5H2.85C2.28995 0.5 2.00992 0.5 1.79601 0.608993C1.60785 0.704867 1.45487 0.857847 1.35899 1.04601C1.25 1.25992 1.25 1.53995 1.25 2.1V5.9C1.25 6.46005 1.25 6.74008 1.35899 6.95399C1.45487 7.14215 1.60785 7.29513 1.79601 7.39101C2.00992 7.5 2.28995 7.5 2.85 7.5H6.65C7.21005 7.5 7.49008 7.5 7.70399 7.39101C7.89215 7.29513 8.04513 7.14215 8.14101 6.95399C8.25 6.74008 8.25 6.46005 8.25 5.9V2.1C8.25 1.53995 8.25 1.25992 8.14101 1.04601C8.04513 0.857847 7.89215 0.704867 7.70399 0.608993C7.49008 0.5 7.21005 0.5 6.65 0.5Z" stroke="#0081A3" stroke-linecap="round" stroke-linejoin="round"/>
<path d="M17.65 0.5H13.85C13.2899 0.5 13.0099 0.5 12.796 0.608993C12.6078 0.704867 12.4549 0.857847 12.359 1.04601C12.25 1.25992 12.25 1.53995 12.25 2.1V5.9C12.25 6.46005 12.25 6.74008 12.359 6.95399C12.4549 7.14215 12.6078 7.29513 12.796 7.39101C13.0099 7.5 13.2899 7.5 13.85 7.5H17.65C18.2101 7.5 18.4901 7.5 18.704 7.39101C18.8922 7.29513 19.0451 7.14215 19.141 6.95399C19.25 6.74008 19.25 6.46005 19.25 5.9V2.1C19.25 1.53995 19.25 1.25992 19.141 1.04601C19.0451 0.857847 18.8922 0.704867 18.704 0.608993C18.4901 0.5 18.2101 0.5 17.65 0.5Z" stroke="#0081A3" stroke-linecap="round" stroke-linejoin="round"/>
<path d="M17.65 11.5H13.85C13.2899 11.5 13.0099 11.5 12.796 11.609C12.6078 11.7049 12.4549 11.8578 12.359 12.046C12.25 12.2599 12.25 12.5399 12.25 13.1V16.9C12.25 17.4601 12.25 17.7401 12.359 17.954C12.4549 18.1422 12.6078 18.2951 12.796 18.391C13.0099 18.5 13.2899 18.5 13.85 18.5H17.65C18.2101 18.5 18.4901 18.5 18.704 18.391C18.8922 18.2951 19.0451 18.1422 19.141 17.954C19.25 17.7401 19.25 17.4601 19.25 16.9V13.1C19.25 12.5399 19.25 12.2599 19.141 12.046C19.0451 11.8578 18.8922 11.7049 18.704 11.609C18.4901 11.5 18.2101 11.5 17.65 11.5Z" stroke="#0081A3" stroke-linecap="round" stroke-linejoin="round"/>
<path d="M6.65 11.5H2.85C2.28995 11.5 2.00992 11.5 1.79601 11.609C1.60785 11.7049 1.45487 11.8578 1.35899 12.046C1.25 12.2599 1.25 12.5399 1.25 13.1V16.9C1.25 17.4601 1.25 17.7401 1.35899 17.954C1.45487 18.1422 1.60785 18.2951 1.79601 18.391C2.00992 18.5 2.28995 18.5 2.85 18.5H6.65C7.21005 18.5 7.49008 18.5 7.70399 18.391C7.89215 18.2951 8.04513 18.1422 8.14101 17.954C8.25 17.7401 8.25 17.4601 8.25 16.9V13.1C8.25 12.5399 8.25 12.2599 8.14101 12.046C8.04513 11.8578 7.89215 11.7049 7.70399 11.609C7.49008 11.5 7.21005 11.5 6.65 11.5Z" stroke="#0081A3" stroke-linecap="round" stroke-linejoin="round"/>
</svg>
