<svg width="42" height="24" viewBox="0 0 42 24" fill="none" xmlns="http://www.w3.org/2000/svg">
<g clip-path="url(#clip0_1480_2537)">
<rect width="42" height="24" rx="3.71613" fill="#9A34FA"/>
<path d="M15.8899 16.2441H16.7702C17.3153 16.2441 17.7008 16.6068 17.7008 17.1222C17.7008 17.6377 17.3153 18.0003 16.7702 18.0003H15.8899V16.2441ZM16.5741 17.5259H16.7337C16.9047 17.5259 16.996 17.4119 16.996 17.1222C16.996 16.8325 16.9047 16.7185 16.7337 16.7185H16.5741V17.5259ZM19.2518 18.0005H17.8058V16.2441H19.2518V16.7185H18.4878V16.9214H19.2063V17.3092H18.4878V17.5259H19.2518V18.0005ZM20.8621 18.0005H19.4161V16.2441H20.8621V16.7185H20.098V16.9214H20.8166V17.3092H20.098V17.5259H20.8621V18.0005ZM26.1104 18.0005C26.0118 17.7319 25.874 17.4454 25.6886 17.1242C25.9055 17.0606 26.0352 16.9238 26.0352 16.714C26.0352 16.3947 25.741 16.2441 25.2756 16.2441H24.3176V18.0005H25.0018V17.2741C25.1539 17.5301 25.2659 17.7718 25.3394 18.0005H26.1104ZM25.0018 17.0288V16.7187H25.239C25.3394 16.7187 25.3964 16.7734 25.3964 16.8738C25.3964 16.9741 25.3394 17.0288 25.239 17.0288H25.0018ZM24.1534 18.0005H22.7074V16.2441H24.1534V16.7185H23.3893V16.9214H24.1078V17.3092H23.3893V17.5259H24.1534V18.0005ZM21.0264 16.7185H21.7323C21.4394 16.9581 21.1984 17.2296 21.0125 17.5259V18.0003H22.5658V17.5259H21.7895C21.9674 17.2672 22.2161 17.0093 22.5658 16.7185V16.2441H21.0262L21.0264 16.7185Z" fill="white"/>
<path d="M24.1358 7.41206C24.2215 6.91577 24.3471 6.6037 24.4864 6.60305H24.4867C24.7463 6.60386 24.9566 7.68629 24.9566 9.02266C24.9566 10.359 24.746 11.4423 24.4861 11.4423C24.3795 11.4423 24.2812 11.2584 24.2022 10.9502C24.0771 12.0785 23.8176 12.854 23.5172 12.854C23.2846 12.854 23.0761 12.3882 22.936 11.6532C22.8404 13.0506 22.5996 14.0421 22.3183 14.0421C22.1418 14.0421 21.9808 13.6492 21.8616 13.0094C21.7183 14.33 21.3872 15.2553 21.0012 15.2553C20.6153 15.2553 20.2835 14.3303 20.1409 13.0094C20.0225 13.6492 19.8616 14.0421 19.6842 14.0421C19.4029 14.0421 19.1628 13.0506 19.0665 11.6532C18.9264 12.388 18.7183 12.854 18.4853 12.854C18.1852 12.854 17.9254 12.0787 17.8003 10.9502C17.7217 11.2593 17.6229 11.4423 17.5164 11.4423C17.2565 11.4423 17.0459 10.359 17.0459 9.02266C17.0459 7.68629 17.2565 6.60305 17.5164 6.60305C17.6559 6.60305 17.7807 6.91609 17.8672 7.41206C18.0055 6.55619 18.2306 6 18.4852 6C18.7874 6 19.0493 6.78662 19.1733 7.92896C19.2945 7.09757 19.4784 6.56763 19.6844 6.56763C19.9731 6.56763 20.2185 7.61012 20.3093 9.06421C20.4803 8.31865 20.7278 7.85102 21.0017 7.85102C21.2756 7.85102 21.5231 8.31897 21.6938 9.06421C21.785 7.61012 22.0302 6.56763 22.3189 6.56763C22.5246 6.56763 22.7081 7.09757 22.83 7.92896C22.9536 6.78662 23.2154 6 23.5176 6C23.7713 6 23.9973 6.55651 24.1358 7.41206ZM16.3733 8.78466C16.3733 8.18725 16.4928 7.70288 16.6403 7.70288C16.7878 7.70288 16.9071 8.18725 16.9071 8.78466C16.9071 9.38208 16.7876 9.86645 16.6403 9.86645C16.4929 9.86645 16.3733 9.38208 16.3733 8.78466ZM25.0949 8.78466C25.0949 8.18725 25.2144 7.70288 25.3617 7.70288C25.5091 7.70288 25.6286 8.18725 25.6286 8.78466C25.6286 9.38208 25.5091 9.86645 25.3617 9.86645C25.2144 9.86645 25.0949 9.38208 25.0949 8.78466Z" fill="white"/>
</g>
<defs>
<clipPath id="clip0_1480_2537">
<rect width="42" height="24" rx="3.71613" fill="white"/>
</clipPath>
</defs>
</svg>
