<svg width="24" height="24" viewBox="0 0 24 24" fill="none" xmlns="http://www.w3.org/2000/svg">
<path d="M16 7C16 6.06829 16.6377 5.28765 17.5 5.06543L17.5 4L17.5098 3.89941C17.5563 3.67145 17.7583 3.5 18 3.5C18.2417 3.5 18.4437 3.67145 18.4902 3.89941L18.5 4L18.5 5.06543C19.3623 5.28765 20 6.06829 20 7C20 8.10457 19.1046 9 18 9C16.8954 9 16 8.10457 16 7ZM17 7C17 7.55228 17.4477 8 18 8C18.5523 8 19 7.55228 19 7C19 6.44771 18.5523 6 18 6C17.4477 6 17 6.44771 17 7ZM17.5098 9.89941C17.5563 9.67145 17.7583 9.5 18 9.5C18.2417 9.5 18.4437 9.67145 18.4902 9.89941L18.5 10L18.5 20C18.5 20.2761 18.2761 20.5 18 20.5C17.7239 20.5 17.5 20.2761 17.5 20L17.5 10L17.5098 9.89941ZM10 14C10 13.0683 10.6377 12.2877 11.5 12.0654L11.5 4L11.5098 3.89941C11.5563 3.67145 11.7583 3.5 12 3.5C12.2417 3.5 12.4437 3.67145 12.4902 3.89941L12.5 4L12.5 12.0654C13.3623 12.2877 14 13.0683 14 14C14 15.1046 13.1046 16 12 16C10.8954 16 10 15.1046 10 14ZM11 14C11 14.5523 11.4477 15 12 15C12.5523 15 13 14.5523 13 14C13 13.4477 12.5523 13 12 13C11.4477 13 11 13.4477 11 14ZM11.5098 16.8994C11.5563 16.6714 11.7583 16.5 12 16.5C12.2417 16.5 12.4437 16.6714 12.4902 16.8994L12.5 17L12.5 20C12.5 20.2761 12.2761 20.5 12 20.5C11.7239 20.5 11.5 20.2761 11.5 20L11.5 17L11.5098 16.8994ZM4 9C4 8.06829 4.63768 7.28765 5.5 7.06543L5.5 4L5.50976 3.89941C5.55629 3.67145 5.75829 3.5 6 3.5C6.24171 3.5 6.44371 3.67145 6.49023 3.89941L6.5 4L6.5 7.06543C7.36232 7.28765 8 8.06829 8 9C8 10.1046 7.10457 11 6 11C4.89543 11 4 10.1046 4 9ZM5 9C5 9.55229 5.44771 10 6 10C6.55228 10 7 9.55229 7 9C7 8.44771 6.55228 8 6 8C5.44771 8 5 8.44771 5 9ZM5.50977 11.8994C5.55629 11.6714 5.75829 11.5 6 11.5C6.24171 11.5 6.44371 11.6714 6.49023 11.8994L6.5 12L6.5 20C6.5 20.2761 6.27614 20.5 6 20.5C5.72386 20.5 5.5 20.2761 5.5 20L5.5 12L5.50977 11.8994Z" fill="#0081A3"/>
</svg>
