<svg width="19" height="13" viewBox="0 0 19 13" fill="none" xmlns="http://www.w3.org/2000/svg">
<path d="M4.50003 5.55762H7.83336M6.1667 3.89095V7.22428M12 6.39095H12.0084M14.5 4.72428H14.5084M8.20749 0.557617H10.7926C12.98 0.557617 14.0737 0.557617 14.9321 0.972143C15.688 1.33712 16.316 1.92186 16.7339 2.64978C17.2085 3.47653 17.2864 4.56746 17.4423 6.7493L17.6473 9.61971C17.7479 11.0271 16.6332 12.2243 15.2221 12.2243C14.5006 12.2243 13.8163 11.9038 13.3543 11.3494L13.0417 10.9743C12.7557 10.6311 12.6127 10.4595 12.4499 10.3209C12.1086 10.0303 11.6954 9.83674 11.2537 9.7606C11.0429 9.72428 10.8196 9.72428 10.3729 9.72428H8.62717C8.18048 9.72428 7.95713 9.72428 7.74639 9.7606C7.30461 9.83674 6.89143 10.0303 6.55012 10.3209C6.38731 10.4595 6.24433 10.6311 5.95836 10.9743L5.64573 11.3494C5.18379 11.9038 4.49949 12.2243 3.77791 12.2243C2.3669 12.2243 1.25221 11.0271 1.35274 9.61971L1.55777 6.7493C1.71361 4.56746 1.79154 3.47653 2.26617 2.64978C2.68407 1.92186 3.31207 1.33712 4.06791 0.972143C4.92638 0.557617 6.02009 0.557617 8.20749 0.557617Z" stroke="#1B1B1B" stroke-linecap="round" stroke-linejoin="round"/>
</svg>
