<svg width="42" height="24" viewBox="0 0 42 24" fill="none" xmlns="http://www.w3.org/2000/svg">
<g clip-path="url(#clip0_1505_8518)">
<rect width="42" height="24" rx="3.71613" fill="#F9F9F9"/>
<path d="M20.6412 11.7314L15.6074 17.0053C15.6639 17.2057 15.7655 17.3904 15.9044 17.5455C16.0433 17.7005 16.2158 17.8218 16.4087 17.9C16.6016 17.9782 16.8098 18.0112 17.0175 17.9966C17.2251 17.9819 17.4267 17.92 17.6067 17.8155L23.2707 14.5897L20.6412 11.7314Z" fill="#EA4335"/>
<path d="M25.7313 10.835L23.2819 9.43213L20.5249 11.8515L23.2931 14.5822L25.7238 13.1944C25.9391 13.0816 26.1195 12.9121 26.2453 12.7041C26.3712 12.4962 26.4377 12.2577 26.4377 12.0147C26.4377 11.7716 26.3712 11.5332 26.2453 11.3252C26.1195 11.1173 25.9391 10.9477 25.7238 10.835H25.7313Z" fill="#FBBC04"/>
<path d="M15.6073 6.99756C15.5769 7.11005 15.5617 7.22612 15.5623 7.34265V16.6601C15.5626 16.7766 15.5777 16.8925 15.6073 17.0052L20.8136 11.8663L15.6073 6.99756Z" fill="#4285F4"/>
<path d="M20.6788 12.0016L23.2819 9.43215L17.6255 6.1913C17.4127 6.06667 17.1706 6.00067 16.924 6C16.6262 5.99941 16.3363 6.09623 16.0986 6.27568C15.8609 6.45514 15.6884 6.7074 15.6074 6.99401L20.6788 12.0016Z" fill="#34A853"/>
</g>
<defs>
<clipPath id="clip0_1505_8518">
<rect width="42" height="24" rx="3.71613" fill="white"/>
</clipPath>
</defs>
</svg>
