<svg width="20" height="20" viewBox="0 0 20 20" fill="none" xmlns="http://www.w3.org/2000/svg">
<path d="M6.12602 12.4997C6.57006 14.225 8.13616 15.4997 10 15.4997C11.8638 15.4997 13.4299 14.225 13.874 12.4997M9.0177 1.26375L2.23539 6.53888C1.78202 6.8915 1.55534 7.06781 1.39203 7.28861C1.24737 7.4842 1.1396 7.70454 1.07403 7.93881C1 8.20327 1 8.49045 1 9.06481V16.2997C1 17.4198 1 17.9799 1.21799 18.4077C1.40973 18.784 1.71569 19.09 2.09202 19.2818C2.51984 19.4997 3.07989 19.4997 4.2 19.4997H15.8C16.9201 19.4997 17.4802 19.4997 17.908 19.2818C18.2843 19.09 18.5903 18.784 18.782 18.4077C19 17.9799 19 17.4198 19 16.2997V9.06481C19 8.49045 19 8.20327 18.926 7.93881C18.8604 7.70454 18.7526 7.4842 18.608 7.28861C18.4447 7.06781 18.218 6.8915 17.7646 6.53888L10.9823 1.26376C10.631 0.990502 10.4553 0.853875 10.2613 0.801357C10.0902 0.755017 9.9098 0.755017 9.73865 0.801357C9.54468 0.853875 9.36902 0.990502 9.0177 1.26375Z" stroke="#0081A3" stroke-linecap="round" stroke-linejoin="round"/>
</svg>
