<svg width="19" height="13" viewBox="0 0 19 13" fill="none" xmlns="http://www.w3.org/2000/svg">
<path d="M17.8334 4.72428H1.16675M8.66675 8.05762H4.50008M1.16675 3.22428L1.16675 9.55762C1.16675 10.491 1.16675 10.9577 1.3484 11.3143C1.50819 11.6279 1.76316 11.8828 2.07676 12.0426C2.43328 12.2243 2.89999 12.2243 3.83341 12.2243L15.1667 12.2243C16.1002 12.2243 16.5669 12.2243 16.9234 12.0426C17.237 11.8828 17.492 11.6279 17.6518 11.3143C17.8334 10.9577 17.8334 10.491 17.8334 9.55762V3.22428C17.8334 2.29086 17.8334 1.82415 17.6518 1.46763C17.492 1.15403 17.237 0.899063 16.9234 0.739274C16.5669 0.557618 16.1002 0.557618 15.1667 0.557618L3.83342 0.557617C2.89999 0.557617 2.43328 0.557617 2.07676 0.739273C1.76316 0.899062 1.50819 1.15403 1.3484 1.46763C1.16675 1.82415 1.16675 2.29086 1.16675 3.22428Z" stroke="white" stroke-width="0.833333" stroke-linecap="round" stroke-linejoin="round"/>
</svg>
