<svg width="163" height="91" viewBox="0 0 163 91" fill="none" xmlns="http://www.w3.org/2000/svg">
<g clip-path="url(#clip0_1573_996)">
<rect y="0.834351" width="163" height="90" rx="13.9355" fill="#0072CE"/>
<path d="M76.2551 29.8344V59.6925L83.0158 61.8344V36.7987C83.0158 35.619 83.5418 34.8357 84.3854 35.1051C85.4884 35.411 85.7028 36.4978 85.7028 37.6643V47.6632C89.911 49.7 93.224 47.6621 93.224 42.2881C93.224 36.7966 91.2816 34.3502 85.5662 32.3833C83.3118 31.6327 79.1338 30.366 76.2551 29.8344Z" fill="white"/>
<path d="M84.3091 57.4623L95.1672 53.5977C96.3955 53.1424 96.5833 52.5238 95.5892 52.1987C94.5794 51.8675 92.7772 51.9623 91.5357 52.4081L84.3091 54.9574V50.8898L84.7229 50.7531C84.7229 50.7531 86.8147 50.0121 89.7569 49.693C92.6934 49.3711 96.2947 49.7349 99.1251 50.8017C102.314 51.8147 102.671 53.2921 101.864 54.3203C101.046 55.3378 99.0616 56.0739 99.0616 56.0739L84.3091 61.3734" fill="white"/>
<path d="M63.8791 57.0545C60.61 56.1438 60.0649 54.2195 61.5562 53.1079C62.9318 52.0929 65.2746 51.3288 65.2746 51.3288L74.959 47.8759V51.8058L67.9964 54.3015C66.7631 54.7426 66.5782 55.3634 67.5715 55.6881C68.5827 56.026 70.3771 55.9351 71.6111 55.4798L74.959 54.2727V57.781C74.7432 57.8172 74.5033 57.8538 74.2843 57.891C70.9464 58.4451 67.3902 58.2176 63.8791 57.0545Z" fill="white"/>
<path d="M100.151 59.7958C100.151 59.8951 100.127 59.9601 100.076 59.9927C100.018 60.0325 99.9409 60.0524 99.8443 60.0524H99.3588V59.5569H99.8727C99.9455 59.5569 99.9998 59.5693 100.043 59.5864C100.114 59.6212 100.151 59.6911 100.151 59.7958ZM100.502 60.9318C100.477 60.9247 100.46 60.9006 100.446 60.8598C100.44 60.8282 100.435 60.7835 100.433 60.726L100.426 60.5013C100.422 60.3973 100.402 60.3164 100.359 60.2682C100.337 60.2302 100.298 60.206 100.261 60.1798C100.31 60.1358 100.354 60.0907 100.392 60.0414C100.435 59.9714 100.46 59.8767 100.46 59.7755C100.46 59.5693 100.371 59.4228 100.199 59.3415C100.112 59.3049 99.9998 59.2812 99.866 59.2812H99.0461V61.0447H99.3588V60.3267H99.8354C99.9242 60.3267 99.9838 60.3381 100.027 60.3526C100.086 60.3902 100.118 60.447 100.122 60.5446L100.137 60.8197C100.142 60.89 100.147 60.9318 100.151 60.9638L100.174 61.0245L100.18 61.0447H100.524V60.9443M98.4037 60.2028C98.4037 59.8426 98.5386 59.5122 98.7849 59.2673C99.0373 59.0171 99.3741 58.8822 99.724 58.8822C100.074 58.8822 100.403 59.0171 100.649 59.2673C100.897 59.5122 101.031 59.8426 101.031 60.2028C101.031 60.9247 100.444 61.5107 99.724 61.5107C99.3741 61.5107 99.0373 61.3772 98.7849 61.1302C98.5386 60.8811 98.4037 60.5542 98.4037 60.2028ZM99.724 61.7811C100.147 61.7811 100.539 61.6143 100.838 61.319C101.134 61.0184 101.301 60.6259 101.301 60.2028C101.301 59.7759 101.134 59.3766 100.838 59.0817C100.539 58.78 100.147 58.6185 99.724 58.6185C98.8467 58.6185 98.1372 59.3266 98.1372 60.2028C98.1372 60.6259 98.3008 61.0184 98.5965 61.319C98.896 61.6143 99.3013 61.7811 99.724 61.7811Z" fill="white"/>
</g>
<defs>
<clipPath id="clip0_1573_996">
<rect y="0.834351" width="163" height="90" rx="13.9355" fill="white"/>
</clipPath>
</defs>
</svg>
