<svg width="13" height="17" viewBox="0 0 13 17" fill="none" xmlns="http://www.w3.org/2000/svg">
<path d="M0.666748 2.54823C0.666748 1.73892 0.666748 1.33427 0.83549 1.11121C0.982493 0.916888 1.20718 0.796638 1.45041 0.782115C1.72961 0.765445 2.0663 0.989905 2.73968 1.43883L11.5026 7.2808C12.0591 7.65174 12.3373 7.83721 12.4342 8.07098C12.519 8.27536 12.519 8.50505 12.4342 8.70943C12.3373 8.9432 12.0591 9.12867 11.5026 9.4996L2.73968 15.3416C2.0663 15.7905 1.72961 16.015 1.45041 15.9983C1.20718 15.9838 0.982493 15.8635 0.83549 15.6692C0.666748 15.4461 0.666748 15.0415 0.666748 14.2322V2.54823Z" stroke="white" stroke-linecap="round" stroke-linejoin="round"/>
</svg>
