<svg width="16" height="17" viewBox="0 0 16 17" fill="none" xmlns="http://www.w3.org/2000/svg">
<path d="M7.53475 15.1733C7.68235 15.2594 7.75615 15.3025 7.86029 15.3248C7.94112 15.3421 8.05904 15.3421 8.13987 15.3248C8.24402 15.3025 8.31781 15.2594 8.46541 15.1733C9.76411 14.4157 13.3334 12.0357 13.3334 8.76339V6.23006C13.3334 5.51413 13.3334 5.15616 13.2231 4.90206C13.1109 4.64379 12.9991 4.5064 12.7691 4.344C12.5428 4.18421 12.0992 4.09194 11.2119 3.90741C10.2339 3.70402 9.48293 3.33675 8.79633 2.8056C8.46709 2.5509 8.30246 2.42355 8.17364 2.38882C8.03771 2.35217 7.96246 2.35217 7.82652 2.38882C7.6977 2.42355 7.53308 2.5509 7.20383 2.8056C6.51723 3.33675 5.76621 3.70402 4.78828 3.90741C3.901 4.09194 3.45736 4.18421 3.23105 4.344C3.00103 4.5064 2.88927 4.64379 2.77711 4.90206C2.66675 5.15616 2.66675 5.51413 2.66675 6.23006V8.76339C2.66675 12.0357 6.23606 14.4157 7.53475 15.1733Z" stroke="#34A853" stroke-linecap="round" stroke-linejoin="round"/>
</svg>
