<svg width="17" height="17" viewBox="0 0 17 17" fill="none" xmlns="http://www.w3.org/2000/svg">
<path d="M11.8329 5.05729C11.8329 5.94135 11.4817 6.78919 10.8566 7.41431C10.2315 8.03944 9.38363 8.39063 8.49958 8.39063C7.61552 8.39063 6.76767 8.03944 6.14255 7.41431C5.51743 6.78919 5.16624 5.94135 5.16624 5.05729M1.52726 4.55845L0.943924 11.5584C0.81861 13.0622 0.755953 13.8141 1.01015 14.3941C1.23348 14.9037 1.62043 15.3243 2.10973 15.5891C2.66664 15.8906 3.42113 15.8906 4.93011 15.8906H12.069C13.578 15.8906 14.3325 15.8906 14.8894 15.5891C15.3787 15.3243 15.7657 14.9037 15.989 14.3941C16.2432 13.8141 16.1805 13.0622 16.0552 11.5584L15.4719 4.55844C15.3641 3.26458 15.3102 2.61765 15.0236 2.12801C14.7713 1.69683 14.3956 1.35113 13.945 1.1355C13.4332 0.890626 12.7841 0.890626 11.4857 0.890626L5.51344 0.890625C4.2151 0.890625 3.56592 0.890625 3.05417 1.1355C2.60353 1.35113 2.22782 1.69682 1.97551 2.128C1.68899 2.61765 1.63508 3.26458 1.52726 4.55845Z" stroke="#1B1B1B" stroke-linecap="round" stroke-linejoin="round"/>
</svg>
