<svg width="21" height="21" viewBox="0 0 21 21" fill="none" xmlns="http://www.w3.org/2000/svg">
<path d="M14.5004 7.5V4.5C14.5004 2.29086 12.7095 0.5 10.5004 0.5C8.29123 0.5 6.50037 2.29086 6.50037 4.5V7.5M2.09237 8.85196L1.49237 15.252C1.32178 17.0717 1.23648 17.9815 1.53842 18.6843C1.80367 19.3016 2.26849 19.8121 2.85839 20.1338C3.5299 20.5 4.44374 20.5 6.27142 20.5H14.7293C16.557 20.5 17.4708 20.5 18.1423 20.1338C18.7322 19.8121 19.1971 19.3016 19.4623 18.6843C19.7643 17.9815 19.679 17.0717 19.5084 15.252L18.9084 8.85197C18.7643 7.31535 18.6923 6.54704 18.3467 5.96616C18.0424 5.45458 17.5927 5.04511 17.055 4.78984C16.4444 4.5 15.6727 4.5 14.1293 4.5L6.87142 4.5C5.32806 4.5 4.55638 4.5 3.94579 4.78984C3.40803 5.04511 2.95838 5.45458 2.65403 5.96616C2.30846 6.54704 2.23643 7.31534 2.09237 8.85196Z" stroke="#0081A3" stroke-linecap="round" stroke-linejoin="round"/>
</svg>
