<svg width="15" height="19" viewBox="0 0 15 19" fill="none" xmlns="http://www.w3.org/2000/svg">
<path d="M0.833252 5.05762C0.833252 3.65749 0.833252 2.95742 1.10574 2.42264C1.34542 1.95224 1.72787 1.56978 2.19828 1.3301C2.73306 1.05762 3.43312 1.05762 4.83325 1.05762H7.50973C8.12121 1.05762 8.42695 1.05762 8.71466 1.12669C8.96976 1.18793 9.21362 1.28895 9.4373 1.42602C9.68959 1.58062 9.90578 1.79681 10.3382 2.22919L12.995 4.88604C13.4274 5.31842 13.6436 5.53461 13.7982 5.78691C13.9353 6.01059 14.0363 6.25445 14.0975 6.50954C14.1666 6.79726 14.1666 7.103 14.1666 7.71447V13.7243C14.1666 15.1244 14.1666 15.8245 13.8941 16.3593C13.6544 16.8297 13.272 17.2121 12.8016 17.4518C12.2668 17.7243 11.5667 17.7243 10.1666 17.7243H4.83325C3.43312 17.7243 2.73306 17.7243 2.19828 17.4518C1.72787 17.2121 1.34542 16.8297 1.10574 16.3593C0.833252 15.8245 0.833252 15.1244 0.833252 13.7243V5.05762Z" stroke="white" stroke-linecap="round" stroke-linejoin="round"/>
<path d="M4.16659 10.891C4.16659 10.6576 4.16659 10.5409 4.212 10.4518C4.25195 10.3734 4.31569 10.3096 4.39409 10.2697C4.48322 10.2243 4.5999 10.2243 4.83325 10.2243H10.1666C10.3999 10.2243 10.5166 10.2243 10.6057 10.2697C10.6841 10.3096 10.7479 10.3734 10.7878 10.4518C10.8333 10.5409 10.8333 10.6576 10.8333 10.891V13.7243C10.8333 13.9576 10.8333 14.0743 10.7878 14.1634C10.7479 14.2419 10.6841 14.3056 10.6057 14.3455C10.5166 14.391 10.3999 14.391 10.1666 14.391H4.83325C4.5999 14.391 4.48322 14.391 4.39409 14.3455C4.31569 14.3056 4.25195 14.2419 4.212 14.1634C4.16659 14.0743 4.16659 13.9576 4.16659 13.7243V10.891Z" stroke="white" stroke-linecap="round" stroke-linejoin="round"/>
</svg>
