<svg width="25" height="17" viewBox="0 0 25 17" fill="none" xmlns="http://www.w3.org/2000/svg">
<g clip-path="url(#clip0_1241_45733)">
<path d="M24.7885 0.236328H-0.000488281V16.7623H24.7885V0.236328Z" fill="#EB6F93"/>
<path fill-rule="evenodd" clip-rule="evenodd" d="M4.33197 14.5717H3.67478L3.14825 13.5648C2.76392 13.7108 2.65631 13.8492 2.65631 14.1951V14.5794H2.06445V11.6777H3.16747C3.81313 11.6777 4.19361 12.0083 4.19361 12.5732C4.20183 12.7405 4.15827 12.9063 4.06886 13.048C3.97946 13.1897 3.84856 13.3003 3.69399 13.3649L4.33197 14.5717ZM2.65631 13.2112C2.79007 13.1254 2.93488 13.0581 3.08676 13.0113L3.21359 12.9729C3.48261 12.8807 3.59791 12.7615 3.59791 12.5655C3.59791 12.3695 3.44034 12.2235 3.14441 12.2235H2.65631V13.2112ZM6.42654 13.5532C6.43169 13.6005 6.43169 13.6482 6.42654 13.6954C5.9539 13.692 5.48266 13.7475 5.02376 13.8607C5.07128 13.9432 5.14043 14.0111 5.22374 14.0572C5.30705 14.1032 5.40135 14.1257 5.49648 14.122C5.69734 14.1192 5.88909 14.0378 6.03069 13.8953L6.32277 14.2796C6.21632 14.3911 6.08796 14.4794 5.94577 14.5389C5.80357 14.5984 5.65061 14.6279 5.49648 14.6255C5.35501 14.6302 5.21406 14.6061 5.08218 14.5547C4.9503 14.5033 4.83023 14.4257 4.72925 14.3265C4.62827 14.2273 4.54848 14.1087 4.49472 13.9777C4.44097 13.8468 4.41436 13.7063 4.41652 13.5648C4.41651 13.2936 4.52344 13.0333 4.71411 12.8405C4.90479 12.6477 5.16382 12.5378 5.43498 12.5348C5.56857 12.5308 5.70151 12.5547 5.82539 12.6048C5.94926 12.655 6.06137 12.7303 6.15459 12.8261C6.24782 12.9218 6.32013 13.0359 6.36695 13.1611C6.41376 13.2863 6.43406 13.4198 6.42654 13.5532ZM5.43498 13.0229C5.31553 13.0213 5.19986 13.0647 5.11089 13.1445C5.02192 13.2242 4.96613 13.3344 4.95458 13.4533C5.24759 13.3689 5.54936 13.3186 5.8539 13.3034C5.82511 13.2168 5.76833 13.1422 5.69248 13.0914C5.61664 13.0406 5.52605 13.0165 5.43498 13.0229ZM7.65638 14.6255C7.84599 14.6359 8.03456 14.5913 8.19951 14.4973C8.36447 14.4032 8.49881 14.2636 8.58645 14.0951L8.09836 13.8415C8.03931 13.9379 7.95038 14.0124 7.84511 14.0536C7.73983 14.0949 7.62396 14.1006 7.51513 14.0699C7.40631 14.0392 7.31048 13.9739 7.24223 13.8837C7.17398 13.7936 7.13705 13.6836 7.13705 13.5705C7.13705 13.4575 7.17398 13.3475 7.24223 13.2574C7.31048 13.1672 7.40631 13.1018 7.51513 13.0712C7.62396 13.0405 7.73983 13.0462 7.84511 13.0874C7.95038 13.1287 8.03931 13.2032 8.09836 13.2996L8.58645 13.0459C8.49614 12.8811 8.36065 12.7454 8.1959 12.6548C8.03115 12.5643 7.84398 12.5226 7.65638 12.5348C7.51249 12.5261 7.36833 12.5469 7.23279 12.596C7.09725 12.6451 6.97318 12.7214 6.86822 12.8202C6.76325 12.919 6.67961 13.0383 6.62245 13.1706C6.56528 13.303 6.53579 13.4456 6.53579 13.5898C6.53579 13.7339 6.56528 13.8765 6.62245 14.0089C6.67961 14.1412 6.76325 14.2605 6.86822 14.3593C6.97318 14.4581 7.09725 14.5344 7.23279 14.5835C7.36833 14.6326 7.51249 14.6534 7.65638 14.6447V14.6255ZM10.0161 12.5348C9.90646 12.5293 9.79689 12.5474 9.6948 12.5878C9.5927 12.6283 9.50046 12.6901 9.42428 12.7692V11.6777H8.86316V14.5717H9.42428V13.5225C9.41846 13.4592 9.4259 13.3953 9.44614 13.335C9.46638 13.2748 9.49897 13.2194 9.54183 13.1724C9.58469 13.1254 9.63687 13.0879 9.69504 13.0622C9.75322 13.0365 9.81611 13.0233 9.8797 13.0233C9.94329 13.0233 10.0062 13.0365 10.0644 13.0622C10.1225 13.0879 10.1747 13.1254 10.2176 13.1724C10.2604 13.2194 10.293 13.2748 10.3133 13.335C10.3335 13.3953 10.341 13.4592 10.3351 13.5225V14.5717H10.8962V13.4187C10.9023 13.3014 10.8837 13.1841 10.8416 13.0744C10.7996 12.9646 10.735 12.8649 10.6521 12.7817C10.5692 12.6984 10.4698 12.6334 10.3603 12.5909C10.2507 12.5484 10.1335 12.5293 10.0161 12.5348ZM12.4912 12.5348C12.3753 12.5282 12.2594 12.5479 12.1523 12.5925C12.0451 12.6371 11.9494 12.7054 11.8724 12.7923V12.5771H11.3305V14.5717H11.8916V13.5225C11.8916 13.4022 11.9394 13.2869 12.0245 13.2018C12.1095 13.1168 12.2249 13.069 12.3451 13.069C12.4654 13.069 12.5808 13.1168 12.6658 13.2018C12.7509 13.2869 12.7987 13.4022 12.7987 13.5225V14.5717H13.3598V13.4187C13.3669 13.3021 13.3494 13.1853 13.3085 13.0759C13.2675 12.9664 13.2041 12.8668 13.1222 12.7835C13.0403 12.7001 12.9418 12.6349 12.8331 12.5921C12.7244 12.5492 12.6079 12.5297 12.4912 12.5348ZM15.1815 12.5771V13.6493C15.1815 13.7645 15.1357 13.875 15.0543 13.9564C14.9728 14.0379 14.8624 14.0836 14.7472 14.0836C14.632 14.0836 14.5215 14.0379 14.4401 13.9564C14.3586 13.875 14.3129 13.7645 14.3129 13.6493V12.5694H13.7402V13.7454C13.7343 13.8609 13.7525 13.9764 13.7937 14.0844C13.8349 14.1925 13.8983 14.2907 13.9797 14.3728C14.0611 14.455 14.1588 14.5192 14.2665 14.5614C14.3741 14.6036 14.4894 14.6228 14.605 14.6178C14.7139 14.6228 14.8226 14.6032 14.9231 14.5607C15.0235 14.5181 15.1131 14.4536 15.1853 14.3719V14.5717H15.7311V12.5694L15.1815 12.5771ZM17.3491 12.5348C17.2338 12.5288 17.1187 12.5488 17.0122 12.5934C16.9058 12.638 16.8107 12.7059 16.7341 12.7923V12.5771H16.1961V14.5717H16.7572V13.5225C16.7514 13.4592 16.7588 13.3953 16.7791 13.335C16.7993 13.2748 16.8319 13.2194 16.8748 13.1724C16.9176 13.1254 16.9698 13.0879 17.028 13.0622C17.0861 13.0365 17.149 13.0233 17.2126 13.0233C17.2762 13.0233 17.3391 13.0365 17.3973 13.0622C17.4555 13.0879 17.5076 13.1254 17.5505 13.1724C17.5934 13.2194 17.6259 13.2748 17.6462 13.335C17.6664 13.3953 17.6739 13.4592 17.6681 13.5225V14.5717H18.2292V13.4187C18.2358 13.3012 18.2176 13.1837 18.1758 13.0737C18.134 12.9637 18.0694 12.8637 17.9864 12.7803C17.9034 12.6969 17.8037 12.632 17.6939 12.5897C17.5841 12.5474 17.4666 12.5287 17.3491 12.5348ZM20.7772 12.3887C20.7834 12.6801 20.6791 12.9629 20.4852 13.1804C20.5609 13.3831 20.5974 13.5983 20.5928 13.8146C20.5928 14.4987 20.293 15.3327 19.2822 15.3327C19.1531 15.3347 19.0241 15.3218 18.8979 15.2942V14.7639C19.0133 14.7937 19.1322 14.808 19.2515 14.8061C19.4088 14.8291 19.5691 14.7942 19.7026 14.708C19.8362 14.6217 19.934 14.49 19.9778 14.3373C19.8384 14.4539 19.6597 14.513 19.4782 14.5025C19.3501 14.5046 19.2229 14.481 19.104 14.4331C18.9852 14.3853 18.8771 14.3142 18.7861 14.2239C18.6952 14.1337 18.6232 14.0261 18.5744 13.9077C18.5256 13.7892 18.501 13.6621 18.502 13.534C18.511 13.3462 18.5701 13.1642 18.6732 13.0069C18.7762 12.8496 18.9196 12.7228 19.0882 12.6396C19.2569 12.5565 19.4448 12.52 19.6323 12.534C19.8198 12.548 20.0002 12.612 20.1546 12.7193C20.2129 12.6164 20.2409 12.4991 20.2353 12.381L20.7772 12.3887ZM19.5243 14.0106C19.6195 14.0106 19.7126 13.9823 19.7916 13.9294C19.8707 13.8764 19.9323 13.8011 19.9685 13.7131C20.0048 13.6251 20.0141 13.5283 19.9952 13.435C19.9764 13.3417 19.9302 13.2562 19.8627 13.1891C19.7951 13.1221 19.7091 13.0766 19.6157 13.0585C19.5222 13.0404 19.4255 13.0505 19.3378 13.0875C19.2501 13.1244 19.1753 13.1866 19.123 13.2661C19.0707 13.3456 19.0432 13.4388 19.0439 13.534C19.0433 13.5974 19.0557 13.6602 19.0803 13.7187C19.1048 13.7771 19.1411 13.8299 19.1868 13.8738C19.2325 13.9177 19.2867 13.9518 19.3461 13.974C19.4054 13.9962 19.4687 14.006 19.532 14.0029L19.5243 14.0106ZM21.3845 14.6101C21.4605 14.6101 21.5348 14.5876 21.598 14.5454C21.6612 14.5031 21.7105 14.4431 21.7395 14.3729C21.7686 14.3027 21.7762 14.2254 21.7614 14.1508C21.7466 14.0763 21.71 14.0078 21.6562 13.9541C21.6025 13.9003 21.534 13.8637 21.4595 13.8489C21.3849 13.834 21.3076 13.8417 21.2374 13.8707C21.1672 13.8998 21.1072 13.9491 21.0649 14.0123C21.0227 14.0755 21.0002 14.1498 21.0002 14.2258C21.0012 14.2763 21.0121 14.3261 21.0323 14.3723C21.0526 14.4186 21.0817 14.4604 21.1181 14.4953C21.1545 14.5303 21.1975 14.5578 21.2445 14.5762C21.2915 14.5945 21.3417 14.6035 21.3922 14.6024L21.3845 14.6101Z" fill="white"/>
<path d="M5.24592 4.12163C6.2352 4.01475 7.22939 3.95959 8.22443 3.95637C8.92006 3.95637 9.42737 3.97943 10.1192 4.02939L10.4381 4.05629L10.7495 4.07551C11.0531 4.07551 11.3106 4.10626 11.5796 4.10626C11.6268 4.10627 11.6722 4.08777 11.706 4.05472C11.7397 4.02167 11.7592 3.9767 11.7602 3.92947C11.7592 3.88325 11.7402 3.83926 11.7071 3.80694C11.6741 3.77461 11.6297 3.75651 11.5834 3.75652C11.3221 3.75652 11.0723 3.75652 10.7764 3.72962L10.4651 3.69503H10.1461C9.44659 3.64122 8.93159 3.61816 8.22443 3.61816C7.1639 3.61808 6.10416 3.67581 5.04991 3.79111C5.00708 3.79579 4.96744 3.81594 4.93842 3.84779C4.90941 3.87963 4.89302 3.92098 4.89234 3.96406V4.5098C4.89218 4.53835 4.90018 4.56635 4.9154 4.59051C5.05339 4.8513 5.14199 5.13534 5.17674 5.42834C5.16758 6.12917 5.31325 6.82338 5.60334 7.46142C6.01457 8.28387 6.75631 8.74891 7.8747 8.74891C9.83091 8.74891 10.4112 8.31462 10.8302 7.0156C10.8302 6.99638 10.884 6.85418 10.8955 6.81575C10.907 6.77732 10.9416 6.67355 10.9647 6.61206C10.9416 6.68124 11.2568 5.73964 11.349 5.57054C11.4489 5.32841 11.5258 5.24386 11.5988 5.24386C11.622 5.24437 11.6451 5.2403 11.6668 5.23188C11.6884 5.22347 11.7082 5.21087 11.725 5.19481C11.7417 5.17875 11.7552 5.15954 11.7645 5.13828C11.7739 5.11702 11.7789 5.09413 11.7794 5.07091C11.7784 5.02368 11.759 4.97871 11.7252 4.94566C11.6914 4.91262 11.6461 4.89411 11.5988 4.89412C11.3375 4.89412 11.1722 5.07476 11.0185 5.43987C10.9416 5.6205 10.6342 6.59284 10.6342 6.49676L10.5611 6.70814C10.5611 6.75041 10.5035 6.89262 10.4958 6.91183C10.4167 7.3257 10.1984 7.70003 9.87703 7.97257C9.49271 8.25313 8.87779 8.39917 7.87854 8.39917C6.8793 8.39917 6.27975 8.01484 5.92617 7.30769C5.65954 6.70281 5.52837 6.04696 5.54185 5.38606C5.50199 5.06275 5.4016 4.74983 5.24592 4.46368V4.12163Z" fill="white"/>
<path d="M7.92849 7.79953H7.90927C7.69715 7.80795 7.48554 7.77311 7.28733 7.69712C7.08911 7.62114 6.90843 7.5056 6.7563 7.35755C6.35824 6.8876 6.14269 6.29005 6.14906 5.67421C6.13343 5.51584 6.12573 5.35678 6.126 5.19764C6.11763 5.12346 6.12457 5.04835 6.14638 4.97696C6.16819 4.90557 6.20442 4.83941 6.25283 4.78257C6.34994 4.66774 6.4876 4.59478 6.63715 4.57888C7.0676 4.53276 7.72864 4.5097 8.17446 4.50586C9.289 4.50586 9.89623 4.55967 10.1422 4.72108C10.4727 4.93246 10.4304 5.24761 10.1422 6.15461L10.0615 6.35062C9.77325 7.28453 9.61183 7.79953 7.92849 7.79953ZM8.55878 4.82101L6.87159 6.88867C6.85695 6.90648 6.84602 6.92704 6.83943 6.94913C6.83285 6.97122 6.83075 6.99441 6.83326 7.01732C6.83576 7.04024 6.84282 7.06242 6.85403 7.08257C6.86523 7.10272 6.88035 7.12042 6.8985 7.13464C6.93583 7.16255 6.98235 7.17529 7.02869 7.1703C7.07503 7.1653 7.11777 7.14295 7.14831 7.10774L8.83549 5.03623C8.86386 5.00048 8.87695 4.95498 8.87191 4.90963C8.86687 4.86427 8.84411 4.82275 8.80859 4.7941C8.79047 4.77936 8.7696 4.76835 8.7472 4.76171C8.7248 4.75508 8.7013 4.75295 8.67807 4.75545C8.65485 4.75796 8.63234 4.76504 8.61187 4.77629C8.59139 4.78754 8.57335 4.80274 8.55878 4.82101ZM7.44039 4.74798L6.4719 5.93555C6.45725 5.95335 6.44632 5.97391 6.43974 5.996C6.43315 6.01809 6.43105 6.04128 6.43356 6.0642C6.43606 6.08711 6.44313 6.1093 6.45433 6.12944C6.46553 6.14959 6.48065 6.1673 6.4988 6.18152C6.53579 6.21033 6.58253 6.22363 6.62915 6.21861C6.67577 6.21359 6.7186 6.19064 6.74861 6.15461L7.71711 4.96705C7.7457 4.93068 7.75889 4.88456 7.75386 4.83857C7.74883 4.79259 7.72598 4.75041 7.69021 4.72108C7.65287 4.69318 7.60636 4.68044 7.56001 4.68543C7.51367 4.69042 7.47093 4.71277 7.44039 4.74798Z" fill="white"/>
<path d="M17.913 4.12144V4.46349C17.7647 4.75155 17.6697 5.06402 17.6324 5.38587C17.6455 6.04673 17.5144 6.70251 17.2481 7.3075C16.8945 8.01081 16.2796 8.39898 15.2957 8.39898C14.3119 8.39898 13.6739 8.25294 13.2972 7.96854C12.9749 7.69522 12.7564 7.31932 12.6785 6.90395C12.6785 6.88474 12.6247 6.74638 12.6131 6.70411C12.6016 6.66183 12.5632 6.55806 12.5401 6.49657C12.5709 6.58112 12.248 5.61647 12.1558 5.43583C12.0021 5.07457 11.8368 4.89393 11.5716 4.89393C11.5258 4.89393 11.4818 4.91216 11.4493 4.94459C11.4169 4.97702 11.3987 5.02101 11.3987 5.06688C11.3987 5.11275 11.4169 5.15674 11.4493 5.18917C11.4818 5.22161 11.5258 5.23983 11.5716 5.23983C11.6485 5.23983 11.7254 5.32438 11.8253 5.57035C11.8983 5.73561 12.2096 6.6772 12.2096 6.60802C12.2327 6.66952 12.2519 6.73485 12.2788 6.81172L12.3441 7.01157C12.763 8.31058 13.3434 8.74871 15.2996 8.74871C16.4218 8.74871 17.1597 8.28368 17.5709 7.46123C17.8622 6.8195 18.0079 6.12128 17.9975 5.41662C18.034 5.12765 18.1226 4.84769 18.2589 4.59032C18.2741 4.56616 18.2821 4.53816 18.2819 4.50961V3.96387C18.2811 3.91958 18.2636 3.87723 18.233 3.8452C18.2024 3.81317 18.1609 3.7938 18.1167 3.79092C17.0639 3.67191 16.0055 3.61033 14.946 3.60645C14.235 3.60645 13.72 3.6295 13.0244 3.68331L12.6977 3.69484L12.3902 3.7179C12.0943 3.73712 11.8445 3.7448 11.5793 3.7448C11.5331 3.74479 11.4887 3.76289 11.4556 3.79522C11.4226 3.82754 11.4035 3.87153 11.4025 3.91775C11.4035 3.96433 11.4224 4.00873 11.4554 4.04167C11.4883 4.07462 11.5327 4.09356 11.5793 4.09454C11.8522 4.09454 12.1097 4.09454 12.4133 4.06379L12.7361 4.05611L13.0551 4.0292C13.7469 3.97924 14.2542 3.95618 14.9498 3.95618C15.9398 3.95966 16.9288 4.01482 17.913 4.12144Z" fill="white"/>
<path d="M15.2314 7.79977C13.5481 7.79977 13.3828 7.28478 13.0907 6.35471L13.0254 6.14718C12.7295 5.24401 12.691 4.92886 13.0254 4.71364C13.2714 4.54838 13.8786 4.48689 14.9893 4.49842C15.4274 4.49842 16.0846 4.52532 16.5266 4.57529C16.6018 4.58101 16.6751 4.60183 16.7421 4.63651C16.809 4.6712 16.8683 4.71903 16.9164 4.77714C16.9645 4.83526 17.0003 4.90248 17.0219 4.97477C17.0434 5.04706 17.0501 5.12295 17.0416 5.19789C17.0454 5.36093 17.0377 5.52403 17.0185 5.68599C17.0221 6.29787 16.8068 6.89086 16.4113 7.3578C16.2601 7.50717 16.0796 7.62356 15.8811 7.69964C15.6827 7.77571 15.4706 7.8098 15.2583 7.79977H15.2314ZM14.2514 4.74823L13.2829 5.9358C13.2543 5.97216 13.2411 6.01829 13.2461 6.06427C13.2512 6.11026 13.274 6.15244 13.3098 6.18176C13.3468 6.21058 13.3935 6.22388 13.4401 6.21886C13.4868 6.21384 13.5296 6.19089 13.5596 6.15486L14.5281 4.9673C14.5428 4.94949 14.5537 4.92894 14.5603 4.90684C14.5669 4.88475 14.569 4.86157 14.5664 4.83865C14.5639 4.81573 14.5569 4.79355 14.5457 4.7734C14.5345 4.75325 14.5194 4.73555 14.5012 4.72133C14.4639 4.69342 14.4174 4.68069 14.371 4.68568C14.3247 4.69067 14.2819 4.71302 14.2514 4.74823ZM15.3698 4.82125L13.6826 6.88892C13.6682 6.90697 13.6575 6.92772 13.6512 6.94996C13.6449 6.9722 13.6432 6.99547 13.646 7.0184C13.6489 7.04133 13.6563 7.06345 13.6679 7.08346C13.6795 7.10346 13.6949 7.12095 13.7133 7.13489C13.7507 7.1628 13.7972 7.17553 13.8435 7.17054C13.8899 7.16555 13.9326 7.1432 13.9632 7.10799L15.6465 5.03648C15.661 5.01899 15.6719 4.99875 15.6784 4.97696C15.685 4.95518 15.687 4.9323 15.6845 4.90969C15.682 4.88709 15.675 4.86522 15.6638 4.8454C15.6527 4.82559 15.6376 4.80822 15.6196 4.79435C15.6015 4.7796 15.5806 4.7686 15.5582 4.76196C15.5358 4.75533 15.5123 4.7532 15.4891 4.7557C15.4658 4.7582 15.4433 4.76528 15.4229 4.77654C15.4024 4.78779 15.3843 4.80299 15.3698 4.82125Z" fill="white"/>
</g>
<defs>
<clipPath id="clip0_1241_45733">
<rect y="0.237305" width="24.789" height="16.526" rx="2.06575" fill="white"/>
</clipPath>
</defs>
</svg>
