<svg width="26" height="17" viewBox="0 0 26 17" fill="none" xmlns="http://www.w3.org/2000/svg">
<rect x="0.499268" y="0.237305" width="24.789" height="16.526" rx="2.06575" fill="#EB6F93"/>
<path d="M6.07319 14.2845H5.481L5.01001 13.381C4.6492 13.5132 4.56657 13.6344 4.56657 13.9484V14.2845H4.03223V11.6816H5.02379C5.6077 11.6816 5.94924 11.9791 5.94924 12.4886C5.95638 12.6388 5.91712 12.7876 5.83681 12.9147C5.75649 13.0419 5.639 13.1412 5.50028 13.1993L6.07319 14.2845ZM4.56657 13.0615C4.68666 12.9834 4.81748 12.9231 4.95493 12.8825L5.0651 12.8467C5.31024 12.7641 5.41765 12.6567 5.41765 12.4831C5.41765 12.3096 5.27718 12.1746 5.01277 12.1746H4.56657V13.0615ZM7.59633 12.4859H8.0866V14.2845H7.60459V14.1109C7.53573 14.1815 7.45285 14.2368 7.36129 14.2733C7.26972 14.3099 7.17152 14.3268 7.07301 14.323C6.82464 14.323 6.58644 14.2244 6.41082 14.0487C6.2352 13.8731 6.13653 13.6349 6.13653 13.3865C6.13653 13.1382 6.2352 12.9 6.41082 12.7244C6.58644 12.5487 6.82464 12.4501 7.07301 12.4501C7.17126 12.4465 7.26919 12.4632 7.36067 12.4992C7.45215 12.5352 7.53519 12.5898 7.60459 12.6594L7.59633 12.4859ZM7.11708 13.863C7.20848 13.8598 7.29691 13.8297 7.37131 13.7765C7.4457 13.7233 7.50278 13.6493 7.53541 13.5639C7.56803 13.4784 7.57476 13.3853 7.55475 13.296C7.53474 13.2068 7.48889 13.1254 7.42291 13.0621C7.35692 12.9987 7.27374 12.9562 7.18375 12.9399C7.09376 12.9235 7.00095 12.934 6.9169 12.9701C6.83286 13.0062 6.76131 13.0663 6.71118 13.1428C6.66106 13.2193 6.63459 13.3089 6.63507 13.4003C6.63754 13.4621 6.65222 13.5227 6.67824 13.5788C6.70427 13.6348 6.74113 13.6852 6.78671 13.7269C6.83228 13.7686 6.88567 13.8009 6.94379 13.8219C7.00191 13.8429 7.06361 13.8522 7.12534 13.8493L7.11708 13.863ZM8.95972 13.381V12.9293C9.02135 12.9903 9.09517 13.0375 9.17635 13.0679C9.25753 13.0983 9.34421 13.1111 9.43071 13.1056V12.6319C9.37098 12.6352 9.31119 12.6265 9.25489 12.6063C9.19859 12.586 9.14694 12.5547 9.103 12.5141C9.05906 12.4735 9.02373 12.4245 8.99912 12.3699C8.9745 12.3154 8.96111 12.2565 8.95972 12.1967V11.9212H8.46119V13.4086C8.45641 13.5287 8.47729 13.6484 8.52244 13.7598C8.56759 13.8712 8.63598 13.9717 8.72303 14.0546C8.81009 14.1375 8.91382 14.2009 9.0273 14.2405C9.14078 14.2801 9.26141 14.2951 9.38114 14.2845H9.4555V13.8107C9.3929 13.8213 9.32871 13.8176 9.26778 13.7997C9.20685 13.7819 9.15078 13.7504 9.10381 13.7076C9.05684 13.6649 9.02021 13.6121 8.99668 13.5531C8.97314 13.4941 8.96333 13.4306 8.96799 13.3673L8.95972 13.381ZM11.4386 13.381C11.4411 13.4232 11.4411 13.4655 11.4386 13.5077C11.0128 13.5064 10.5883 13.5563 10.1744 13.6565C10.2165 13.7315 10.2789 13.7933 10.3543 13.8347C10.4298 13.876 10.5154 13.8954 10.6013 13.8906C10.7813 13.8893 10.9535 13.8171 11.0806 13.6895L11.356 14.0366C11.2596 14.1359 11.1439 14.2145 11.016 14.2676C10.8881 14.3206 10.7508 14.347 10.6123 14.3451C10.4849 14.3495 10.358 14.3281 10.2391 14.2821C10.1202 14.2361 10.0119 14.1664 9.92077 14.0773C9.82962 13.9882 9.75749 13.8815 9.70876 13.7638C9.66003 13.646 9.63572 13.5195 9.63729 13.3921C9.63467 13.2675 9.65723 13.1437 9.70361 13.0281C9.74999 12.9125 9.81923 12.8074 9.90719 12.7192C9.99515 12.631 10.1 12.5614 10.2155 12.5147C10.331 12.468 10.4547 12.4451 10.5793 12.4473C10.6986 12.4459 10.8169 12.4692 10.9267 12.5157C11.0366 12.5623 11.1357 12.631 11.2177 12.7177C11.2997 12.8043 11.3629 12.907 11.4033 13.0193C11.4437 13.1316 11.4604 13.251 11.4524 13.37L11.4386 13.381ZM10.5462 12.9018C10.444 12.9058 10.3466 12.9464 10.2718 13.0161C10.197 13.0859 10.1497 13.1802 10.1386 13.2819C10.4025 13.2077 10.6744 13.1652 10.9483 13.1552C10.9239 13.0731 10.872 13.002 10.8012 12.9539C10.7305 12.9057 10.6453 12.8834 10.56 12.8908L10.5462 12.9018ZM12.7662 12.4556C12.6629 12.452 12.56 12.4711 12.4648 12.5116C12.3696 12.552 12.2845 12.6128 12.2153 12.6897V12.4969H11.7361V14.2845H12.2401V13.3425C12.2401 13.2329 12.2837 13.1278 12.3611 13.0503C12.4386 12.9729 12.5437 12.9293 12.6533 12.9293C12.7629 12.9293 12.8679 12.9729 12.9454 13.0503C13.0229 13.1278 13.0664 13.2329 13.0664 13.3425V14.2845H13.5732V13.2488C13.5804 13.1423 13.5649 13.0355 13.5277 12.9354C13.4905 12.8353 13.4325 12.7442 13.3576 12.6682C13.2826 12.5922 13.1923 12.533 13.0928 12.4944C12.9932 12.4559 12.8866 12.4389 12.78 12.4446L12.7662 12.4556ZM15.2258 14.2845L14.675 13.5518L14.4491 13.7804V14.2845H13.9533V11.6816H14.4601V13.1993L15.1459 12.4859H15.7684L15.033 13.2296L15.8153 14.2845H15.2258ZM17.242 12.4859H17.735V14.2845H17.242V14.1109C17.1733 14.1818 17.0905 14.2373 16.9989 14.2738C16.9073 14.3104 16.809 14.3271 16.7104 14.323C16.462 14.323 16.2238 14.2244 16.0482 14.0487C15.8726 13.8731 15.7739 13.6349 15.7739 13.3865C15.7739 13.1382 15.8726 12.9 16.0482 12.7244C16.2238 12.5487 16.462 12.4501 16.7104 12.4501C16.8087 12.4461 16.9067 12.4627 16.9983 12.4987C17.0898 12.5348 17.1728 12.5895 17.242 12.6594V12.4859ZM16.7627 13.863C16.8543 13.8603 16.943 13.8307 17.0178 13.7778C17.0925 13.7249 17.15 13.6511 17.1831 13.5657C17.2161 13.4803 17.2232 13.387 17.2035 13.2976C17.1838 13.2082 17.1382 13.1265 17.0723 13.0629C17.0064 12.9993 16.9232 12.9565 16.8331 12.94C16.7431 12.9234 16.6501 12.9338 16.5659 12.9698C16.4817 13.0058 16.41 13.0659 16.3597 13.1425C16.3095 13.219 16.283 13.3087 16.2835 13.4003C16.2885 13.5231 16.3416 13.6389 16.4312 13.7229C16.5209 13.8069 16.6399 13.8523 16.7627 13.8493V13.863ZM19.3904 12.4859V13.4582C19.3949 13.5121 19.3882 13.5664 19.3707 13.6176C19.3532 13.6688 19.3252 13.7158 19.2886 13.7557C19.2519 13.7955 19.2074 13.8273 19.1579 13.8491C19.1083 13.8708 19.0548 13.8821 19.0006 13.8821C18.9465 13.8821 18.893 13.8708 18.8434 13.8491C18.7939 13.8273 18.7493 13.7955 18.7127 13.7557C18.6761 13.7158 18.6481 13.6688 18.6306 13.6176C18.6131 13.5664 18.6064 13.5121 18.6109 13.4582V12.4941H18.1041V13.5408C18.0982 13.6447 18.1142 13.7487 18.151 13.8461C18.1879 13.9434 18.2447 14.032 18.3179 14.106C18.3912 14.1799 18.4791 14.2377 18.5761 14.2756C18.673 14.3135 18.7768 14.3306 18.8808 14.3258C18.9791 14.3306 19.0773 14.3136 19.1683 14.276C19.2592 14.2383 19.3407 14.181 19.4069 14.1082V14.2845H19.8972V12.4859H19.3904ZM21.2936 12.1581V11.6816H21.2192C21.0984 11.6716 20.9768 11.6876 20.8626 11.7285C20.7485 11.7695 20.6444 11.8344 20.5575 11.919C20.4706 12.0036 20.4028 12.1058 20.3587 12.2188C20.3147 12.3318 20.2953 12.4529 20.3021 12.574V14.2845H20.8061V13.5353C20.8067 13.475 20.8196 13.4154 20.8442 13.3604C20.8687 13.3053 20.9042 13.2558 20.9486 13.215C20.993 13.1742 21.0454 13.143 21.1023 13.1232C21.1593 13.1034 21.2197 13.0956 21.2798 13.1001V12.6153C21.1928 12.6107 21.1057 12.6242 21.0241 12.655C20.9426 12.6858 20.8683 12.7333 20.8061 12.7944V12.6016C20.8009 12.5381 20.8103 12.4743 20.8337 12.4151C20.857 12.3558 20.8937 12.3027 20.9408 12.2599C20.9879 12.2171 21.0442 12.1856 21.1053 12.168C21.1665 12.1503 21.2309 12.1469 21.2936 12.1581ZM21.7068 14.3148C21.7738 14.3148 21.8393 14.2949 21.895 14.2577C21.9507 14.2204 21.9941 14.1675 22.0198 14.1056C22.0454 14.0437 22.0521 13.9756 22.039 13.9099C22.026 13.8442 21.9937 13.7838 21.9463 13.7364C21.8989 13.689 21.8386 13.6568 21.7729 13.6437C21.7071 13.6306 21.639 13.6373 21.5771 13.663C21.5152 13.6886 21.4623 13.732 21.4251 13.7878C21.3879 13.8435 21.368 13.909 21.368 13.976C21.368 14.0205 21.3767 14.0645 21.3938 14.1056C21.4108 14.1467 21.4357 14.1841 21.4672 14.2155C21.4987 14.247 21.536 14.2719 21.5771 14.289C21.6182 14.306 21.6623 14.3148 21.7068 14.3148Z" fill="white"/>
<path d="M16.9291 9.61844L12.1365 2.93369C10.377 4.20799 9.16945 6.10505 8.75971 8.23852L16.9291 9.61844ZM8.39062 8.34319C8.59251 7.18545 9.02282 6.07948 9.65648 5.08974C10.2901 4.1 11.1145 3.24629 12.0814 2.57838C12.1168 2.55437 12.16 2.54497 12.2021 2.55216C12.2442 2.55935 12.2819 2.58257 12.3073 2.61694L17.4193 9.7479C17.4381 9.77385 17.4487 9.80486 17.4497 9.83691C17.4507 9.86895 17.442 9.90055 17.4247 9.92758C17.4075 9.95462 17.3825 9.97584 17.3531 9.9885C17.3236 10.0012 17.291 10.0047 17.2596 9.99854L8.52834 8.52773C8.48658 8.52031 8.44938 8.49685 8.42467 8.46237C8.39997 8.42789 8.38973 8.38512 8.39613 8.34319H8.39062Z" fill="white"/>
<path d="M12.6541 3.6685C12.61 3.70981 12.5687 3.75388 12.5081 3.81998L12.4338 3.90261L12.3594 3.98524C12.084 4.26068 11.9104 4.4039 11.7314 4.40666C10.9051 4.40666 10.5195 4.93273 10.5415 5.62132C10.5415 5.67089 10.5415 5.71221 10.5415 5.7728C10.5451 5.82324 10.5451 5.87386 10.5415 5.92429C10.5415 6.09506 10.4093 6.29613 9.9163 6.81945C9.31586 7.45845 9.29933 8.19661 9.64087 8.67311C9.66661 8.7072 9.70474 8.72978 9.74701 8.73597C9.78928 8.74215 9.83229 8.73145 9.86672 8.70616C9.88403 8.69411 9.89872 8.67869 9.90994 8.66084C9.92116 8.64298 9.92866 8.62304 9.932 8.60222C9.93534 8.5814 9.93446 8.56011 9.92939 8.53964C9.92433 8.51917 9.91519 8.49993 9.90253 8.48306C9.62709 8.13051 9.65188 7.56036 10.1449 7.03704C10.6958 6.45588 10.8473 6.21074 10.8528 5.93531C10.8582 5.87208 10.8582 5.80849 10.8528 5.74526C10.8528 5.69017 10.8528 5.65437 10.8528 5.61581C10.8362 5.08973 11.1062 4.73993 11.7231 4.72891C12.0234 4.72891 12.274 4.55264 12.5852 4.20284L12.6651 4.11745L12.7367 4.03482L12.8689 3.89435C12.8841 3.87971 12.8962 3.86216 12.9044 3.84276C12.9126 3.82336 12.9169 3.8025 12.9169 3.78142C12.9169 3.76035 12.9126 3.73949 12.9044 3.72008C12.8962 3.70068 12.8841 3.68314 12.8689 3.6685C12.8393 3.64235 12.8011 3.62793 12.7615 3.62793C12.722 3.62793 12.6838 3.64235 12.6541 3.6685Z" fill="white"/>
<path d="M12.2939 9.0203C12.4051 8.76979 12.5933 8.56127 12.8312 8.42501C13.069 8.28874 13.344 8.23183 13.6164 8.26254C13.8888 8.29324 14.1443 8.40997 14.3458 8.59576C14.5473 8.78156 14.6843 9.02675 14.737 9.29573C14.7477 9.34467 14.7541 9.39443 14.7563 9.44446C14.7603 9.48939 14.782 9.53088 14.8166 9.5598C14.8512 9.58873 14.8959 9.60272 14.9408 9.59871C14.9857 9.59469 15.0272 9.57299 15.0562 9.53838C15.0851 9.50377 15.0991 9.45909 15.0951 9.41417C15.0951 9.35082 15.0813 9.29022 15.0703 9.22687C15.0025 8.88971 14.828 8.58334 14.5725 8.35315C14.317 8.12295 13.9942 7.98119 13.6518 7.94886C13.3109 7.91192 12.967 7.98434 12.67 8.15565C12.3729 8.32696 12.138 8.58828 11.9992 8.90186C11.9911 8.92138 11.987 8.9423 11.9871 8.96343C11.9871 8.98455 11.9914 9.00545 11.9996 9.02492C12.0078 9.04438 12.0198 9.06203 12.0348 9.07684C12.0499 9.09165 12.0677 9.10332 12.0873 9.11119C12.1268 9.12575 12.1704 9.12441 12.209 9.10745C12.2475 9.0905 12.278 9.05925 12.2939 9.0203Z" fill="white"/>
<path d="M11.7429 7.57703C11.5157 7.53439 11.2816 7.54583 11.0596 7.61043C10.8375 7.67502 10.6338 7.79096 10.4649 7.94886C10.4498 7.9635 10.4377 7.98105 10.4295 8.00045C10.4212 8.01985 10.417 8.04071 10.417 8.06179C10.417 8.08286 10.4212 8.10373 10.4295 8.12313C10.4377 8.14253 10.4498 8.16007 10.4649 8.17472C10.4958 8.205 10.5373 8.22196 10.5806 8.22196C10.6239 8.22196 10.6654 8.205 10.6963 8.17472C10.8282 8.05392 10.9867 7.966 11.159 7.91814C11.3314 7.87027 11.5126 7.86381 11.6878 7.89928C11.7298 7.90741 11.7733 7.89867 11.8089 7.87495C11.8445 7.85124 11.8693 7.81446 11.8779 7.77258C11.8836 7.75076 11.8845 7.72798 11.8805 7.70578C11.8766 7.68358 11.868 7.66248 11.8552 7.64393C11.8424 7.62537 11.8257 7.60979 11.8063 7.59825C11.787 7.5867 11.7653 7.57947 11.7429 7.57703Z" fill="white"/>
<path d="M13.9708 7.03482C14.0455 7.25251 14.1713 7.44913 14.3375 7.60823C14.5038 7.76733 14.7058 7.88427 14.9266 7.94926C14.9675 7.96132 15.0115 7.95682 15.0491 7.93672C15.0867 7.91662 15.1149 7.88255 15.1277 7.84184C15.134 7.82177 15.1362 7.80064 15.1342 7.7797C15.1322 7.75876 15.126 7.73843 15.1159 7.71994C15.1059 7.70144 15.0923 7.68514 15.0758 7.67202C15.0594 7.65889 15.0405 7.6492 15.0202 7.64353C14.8472 7.59377 14.6887 7.50328 14.5579 7.37965C14.427 7.25601 14.3277 7.10282 14.2683 6.93291C14.2615 6.91263 14.2507 6.89389 14.2366 6.87778C14.2225 6.86167 14.2054 6.8485 14.1862 6.83903C14.167 6.82957 14.1461 6.82398 14.1248 6.8226C14.1034 6.82122 14.082 6.82408 14.0617 6.831C14.023 6.84639 13.9918 6.87633 13.9748 6.91441C13.9578 6.95249 13.9564 6.99571 13.9708 7.03482Z" fill="white"/>
<path d="M12.5445 7.35422C12.3157 7.3515 12.0929 7.28119 11.9041 7.15214C11.7152 7.02308 11.5687 6.84105 11.483 6.62894C11.3974 6.41683 11.3764 6.18412 11.4227 5.9601C11.469 5.73608 11.5805 5.53076 11.7432 5.36996C11.9059 5.20917 12.1125 5.10009 12.3371 5.05645C12.5616 5.01281 12.794 5.03657 13.0051 5.12472C13.2162 5.21288 13.3965 5.3615 13.5233 5.55188C13.6501 5.74226 13.7178 5.9659 13.7178 6.19465C13.7156 6.5039 13.5909 6.79966 13.3709 7.01704C13.151 7.23443 12.8537 7.35569 12.5445 7.35422ZM12.5445 7.03196C12.7066 7.02656 12.8636 6.97354 12.9958 6.87952C13.128 6.7855 13.2296 6.65464 13.288 6.50326C13.3463 6.35187 13.3588 6.18667 13.3239 6.02824C13.2889 5.86981 13.2081 5.72517 13.0916 5.61234C12.975 5.49952 12.8278 5.42352 12.6683 5.3938C12.5088 5.36409 12.3441 5.38198 12.1947 5.44525C12.0453 5.50852 11.9178 5.61437 11.8282 5.74959C11.7386 5.88481 11.6907 6.04343 11.6906 6.20566C11.695 6.42824 11.7872 6.64006 11.9472 6.79487C12.1072 6.94968 12.3219 7.03492 12.5445 7.03196Z" fill="white"/>
</svg>
