<svg width="26" height="17" viewBox="0 0 26 17" fill="none" xmlns="http://www.w3.org/2000/svg">
<g clip-path="url(#clip0_1241_45759)">
<path d="M0.500977 2.30305C0.500977 1.16217 1.42584 0.237305 2.56672 0.237305H23.2242C24.3651 0.237305 25.29 1.16217 25.29 2.30305V14.6975C25.29 15.8384 24.3651 16.7633 23.2242 16.7633H2.56672C1.42584 16.7633 0.500977 15.8384 0.500977 14.6975V2.30305Z" fill="#1F6EAA"/>
<path d="M18.7946 5.33527L18.3149 6.39262H19.2768L18.7946 5.33527ZM13.2599 5.99049C13.3503 5.94758 13.4035 5.85424 13.4035 5.73833C13.4035 5.62475 13.3476 5.54249 13.2572 5.50383C13.1748 5.46098 13.0482 5.45603 12.9267 5.45603H12.0686V6.04517H12.9152C13.0508 6.0452 13.1641 6.04339 13.2599 5.99049ZM2.26443 5.33527L1.79022 6.39262H2.7415L2.26443 5.33527ZM24.343 12.109H22.9972V11.5401H24.3376C24.4704 11.5401 24.5635 11.5242 24.6195 11.4744C24.6725 11.4299 24.7024 11.3671 24.7019 11.3014C24.7019 11.2241 24.6681 11.1627 24.6167 11.126C24.5663 11.0855 24.4926 11.067 24.3712 11.067C23.7169 11.0468 22.9006 11.0854 22.9006 10.2459C22.9006 9.86116 23.1691 9.45613 23.9004 9.45613H25.2886V8.92828H23.9989C23.6097 8.92828 23.3269 9.01308 23.1267 9.14498V8.92828H21.2191C20.9141 8.92828 20.556 8.99705 20.3867 9.14498V8.92828H16.9801V9.14498C16.709 8.96703 16.2515 8.92828 16.0404 8.92828H13.7934V9.14498C13.579 8.95601 13.1019 8.92828 12.8113 8.92828H10.2966L9.72118 9.49484L9.1822 8.92828H5.42564V12.6303H9.11133L9.70421 12.0547L10.2628 12.6303L12.5346 12.6321V11.7613H12.7581C13.0595 11.7657 13.415 11.7545 13.7287 11.6312V12.6302H15.6026V11.6653H15.693C15.8083 11.6653 15.8198 11.6697 15.8198 11.7745V12.63H21.5124C21.8739 12.63 22.2517 12.5459 22.4608 12.393V12.63H24.2666C24.6423 12.63 25.0093 12.5821 25.2885 12.4594V11.7698C25.1193 11.995 24.7893 12.1091 24.3429 12.1091L24.343 12.109ZM12.7879 11.2348H11.9184V12.1247H10.5639L9.7058 11.2465L8.81408 12.1247H6.05373V9.47176H8.85654L9.71387 10.3414L10.6003 9.47176H12.827C13.38 9.47176 14.0014 9.61108 14.0014 10.3458C14.0014 11.0827 13.397 11.2348 12.7879 11.2348ZM16.9691 11.1146C17.0675 11.244 17.0817 11.3649 17.0846 11.5988V12.1247H16.3849V11.7928C16.3849 11.6332 16.4018 11.3969 16.2722 11.2735C16.1705 11.1785 16.0152 11.1558 15.7609 11.1558H15.0162V12.1247H14.316V9.47179H15.9248C16.2778 9.47179 16.5346 9.48606 16.7633 9.59696C16.9833 9.71785 17.1217 9.88346 17.1217 10.1861C17.1216 10.6095 16.8112 10.8255 16.6278 10.8919C16.7828 10.9439 16.9095 11.0373 16.9691 11.1146ZM19.8477 10.0204H18.2158V10.5027H19.8078V11.044H18.2158V11.5719L19.8477 11.5742V12.1247H17.5218V9.47176H19.8477V10.0204ZM21.6384 12.1247H20.2811V11.5558H21.633C21.7652 11.5558 21.8589 11.5399 21.9176 11.49C21.9655 11.449 22 11.3894 22 11.3171C22 11.2398 21.9627 11.1784 21.9149 11.1416C21.8616 11.1011 21.788 11.0828 21.6667 11.0828C21.015 11.0625 20.1989 11.1011 20.1989 10.2616C20.1989 9.87682 20.4647 9.47179 21.1952 9.47179H22.5923V10.0364H21.3139C21.1872 10.0364 21.1048 10.0408 21.0348 10.0844C20.9584 10.1274 20.9301 10.1911 20.9301 10.2752C20.9301 10.3752 20.9949 10.4434 21.0825 10.4728C21.1561 10.4961 21.235 10.5029 21.3537 10.5029L21.7289 10.5122C22.1071 10.5204 22.3669 10.5801 22.5247 10.7255C22.6603 10.8532 22.7332 11.0145 22.7332 11.2875C22.7331 11.8582 22.3411 12.1247 21.6384 12.1247ZM16.2336 10.0632C16.1494 10.0177 16.0252 10.0153 15.9011 10.0153H15.043V10.6111H15.8897C16.0252 10.6111 16.1405 10.6067 16.2336 10.5564C16.3239 10.5067 16.378 10.4153 16.378 10.3018C16.378 10.1883 16.3239 10.1062 16.2336 10.0632ZM24.0197 10.0152C23.893 10.0152 23.8087 10.0196 23.7377 10.0632C23.6642 10.1062 23.636 10.1699 23.636 10.2541C23.636 10.3541 23.6981 10.4222 23.7883 10.4517C23.8619 10.4749 23.9408 10.4817 24.0568 10.4817L24.4346 10.4909C24.8157 10.4995 25.0702 10.5591 25.2253 10.7045C25.2536 10.7247 25.2705 10.7474 25.29 10.7701V10.0153H24.0198L24.0197 10.0152ZM12.812 10.0152H11.9034V10.6909H12.804C13.0717 10.6909 13.2382 10.57 13.2383 10.3405C13.2382 10.1085 13.0636 10.0152 12.812 10.0152ZM6.74781 10.0152V10.4976H8.27764V11.0389H6.74781V11.5667H8.46111L9.25714 10.7884L8.49493 10.0152H6.74781ZM11.2217 11.8705V9.74356L10.1518 10.7899L11.2217 11.8705ZM6.80629 7.61105V8.06816H12.6283L12.6256 7.10113H12.7383C12.8172 7.10364 12.8401 7.11024 12.8401 7.22875V8.06819H15.8514V7.84305C16.0943 7.96146 16.472 8.06819 16.9691 8.06819H18.2359L18.507 7.47909H19.1081L19.3732 8.06819H21.8144V7.5086L22.184 8.06816H24.1403V4.36914H22.2043V4.806L21.9332 4.36914H19.9466V4.806L19.6977 4.36914H17.0143C16.565 4.36914 16.1703 4.42617 15.8513 4.58514V4.36914H13.9995V4.58514C13.7965 4.42129 13.52 4.36914 13.2125 4.36914H6.44722L5.99332 5.32459L5.52715 4.36914H3.3963V4.806L3.16216 4.36914H1.3449L0.501008 6.12794V7.5348L1.74887 4.88247H2.78428L3.96941 7.39366V4.88247H5.10684L6.01881 6.68174L6.85663 4.88247H8.01687V7.5348H7.30258L7.29998 5.45754L6.28946 7.5348H5.6776L4.6645 5.4557V7.5348H3.24705L2.97929 6.94319H1.52834L1.25782 7.5348H0.500977V8.06837H1.6917L1.96016 7.47924H2.56127L2.82903 8.06837H5.17173V7.61793L5.38082 8.07025H6.59697L6.80609 7.61114L6.80629 7.61105ZM15.9806 5.19163C16.2058 4.97994 16.5587 4.88232 17.0389 4.88232H17.7135V5.45063H17.053C16.7988 5.45063 16.6551 5.48503 16.5168 5.60779C16.398 5.71944 16.3165 5.93056 16.3165 6.20854C16.3165 6.49271 16.3786 6.69758 16.5081 6.83141C16.6154 6.93637 16.8104 6.9682 16.9938 6.9682H17.3069L18.289 4.88241H19.3331L20.5129 7.3911V4.88244H21.574L22.799 6.72963V4.88244H23.5128V7.53467H22.5253L21.2044 5.544V7.53467H19.7851L19.514 6.94307H18.0663L17.8032 7.53467H16.9877C16.649 7.53467 16.2202 7.46654 15.9773 7.2413C15.7324 7.01612 15.605 6.71107 15.605 6.22879C15.6049 5.83538 15.681 5.4758 15.9806 5.19163ZM14.5473 4.88235H15.2583V7.53467H14.5473V4.88235ZM11.3415 4.88235H12.9443C13.3003 4.88235 13.5629 4.89095 13.7882 5.00939C14.0086 5.12787 14.1408 5.30084 14.1408 5.59663C14.1408 6.01955 13.8305 6.238 13.6498 6.30363C13.8022 6.35644 13.9325 6.44971 13.9946 6.52696C14.093 6.6589 14.1099 6.77673 14.1099 7.01359V7.53464H13.4071L13.4045 7.20017C13.4045 7.04054 13.4212 6.81101 13.2945 6.68349C13.1927 6.59024 13.0374 6.56994 12.7865 6.56994H12.0384V7.53467H11.3416L11.3415 4.88235ZM8.53221 4.88235H10.8602V5.43467H9.22914V5.91275H10.821V6.45644H9.22914V6.98613H10.8602V7.53464H8.53221V4.88235Z" fill="white"/>
</g>
<defs>
<clipPath id="clip0_1241_45759">
<rect width="24.789" height="16.526" fill="white" transform="translate(0.500977 0.237305)"/>
</clipPath>
</defs>
</svg>
