<svg width="26" height="17" viewBox="0 0 26 17" fill="none" xmlns="http://www.w3.org/2000/svg">
<g clip-path="url(#clip0_1241_45763)">
<path d="M0.497803 2.30305C0.497803 1.16217 1.42267 0.237305 2.56355 0.237305H23.221C24.3619 0.237305 25.2868 1.16217 25.2868 2.30305V14.6975C25.2868 15.8384 24.3619 16.7633 23.221 16.7633H2.56355C1.42267 16.7633 0.497803 15.8384 0.497803 14.6975V2.30305Z" fill="#F9F9F9"/>
<path d="M19.7146 13.2143C20.6667 13.2143 21.1148 12.851 21.5062 11.7498L23.221 6.94022H22.2281L21.0782 10.6612H21.0581L19.9082 6.94526H18.8872L20.5415 11.523L20.4529 11.8015C20.3903 12.2 20.0325 12.4843 19.6297 12.4549C19.5529 12.4549 19.4038 12.447 19.3433 12.439V13.1949C19.4664 13.2117 19.5907 13.2197 19.7146 13.2193V13.2143ZM16.406 10.8057C15.8852 10.8057 15.5547 10.5537 15.5547 10.1724C15.5547 9.77717 15.8735 9.54702 16.4828 9.51048L17.5681 9.44202V9.79733C17.5441 10.3828 17.0498 10.8384 16.4644 10.8145C16.4446 10.8137 16.4253 10.812 16.406 10.8103V10.8057ZM16.1439 11.552C16.7348 11.5679 17.2875 11.2601 17.5844 10.749H17.6046V11.505H18.5084V8.37402C18.5084 7.46603 17.7822 6.881 16.6643 6.881C15.6273 6.881 14.8605 7.47401 14.8323 8.28919H15.7122C15.8172 7.87467 16.2111 7.60126 16.6361 7.64746C17.2333 7.64746 17.5681 7.92591 17.5681 8.43828V8.78518L16.3501 8.85784C15.2162 8.92629 14.603 9.39037 14.603 10.1976C14.6022 11.0161 15.2355 11.5566 16.1435 11.5566L16.1439 11.552ZM10.9064 6.03643H12.0319C12.8794 6.03643 13.3637 6.48833 13.3637 7.28334C13.3637 8.07836 12.8794 8.53403 12.0281 8.53403H10.9064V6.03643ZM9.92993 5.21328V11.5037H10.9064V9.35929H12.2583C13.3595 9.41851 14.2998 8.57393 14.359 7.47275C14.3624 7.41018 14.3628 7.34802 14.3603 7.28544C14.4124 6.19644 13.572 5.27165 12.483 5.21916C12.4187 5.21622 12.3549 5.21664 12.2906 5.21958L9.92993 5.21328ZM6.68897 6.38711C6.12788 6.35477 5.64785 6.70587 5.38158 6.70587C5.11532 6.70587 4.70374 6.40349 4.25982 6.41189C3.67185 6.42701 3.13596 6.75249 2.85164 7.26738C2.24645 8.30851 2.69415 9.84982 3.27917 10.6969C3.5656 11.1169 3.90914 11.5768 4.36062 11.5604C4.78815 11.5444 4.95782 11.2819 5.47439 11.2819C5.99097 11.2819 6.14426 11.5604 6.59615 11.552C7.06401 11.544 7.35883 11.132 7.6461 10.712C7.84853 10.4147 8.00602 10.0892 8.11395 9.74609C7.56252 9.50502 7.20512 8.96199 7.20218 8.36016C7.21058 7.82931 7.48861 7.33962 7.9405 7.06117C7.6524 6.65212 7.19 6.40097 6.68981 6.38333L6.68897 6.38711ZM6.33871 5.83148C6.09302 6.141 5.71714 6.31866 5.32194 6.31152C5.29674 5.92598 5.42778 5.54674 5.68522 5.25863C5.94141 4.96129 6.30259 4.77482 6.69317 4.73828C6.72089 5.13474 6.59363 5.52616 6.33787 5.83022" fill="black"/>
</g>
<defs>
<clipPath id="clip0_1241_45763">
<rect width="24.789" height="16.526" fill="white" transform="translate(0.497803 0.237305)"/>
</clipPath>
</defs>
</svg>
