<svg width="41" height="17" viewBox="0 0 41 17" fill="none" xmlns="http://www.w3.org/2000/svg">
<rect x="0.603271" y="0.237305" width="40.3968" height="16.526" rx="1.91825" fill="#F9F9F9"/>
<g clip-path="url(#clip0_1241_45785)">
<path d="M28.0596 6.00064C27.9238 6.37077 27.68 6.59975 27.2163 6.59975H27.2146L26.9747 6.59936L27.3847 5.47926H27.6181C28.045 5.47955 28.2044 5.60588 28.0596 6.00064ZM29.2902 4.97744C29.0817 4.67324 28.6572 4.52385 27.9923 4.52321H26.453L24.788 9.15485H26.2024L26.8075 7.52449C26.8371 7.59136 27.1943 9.15485 27.1943 9.15485H28.6809C28.6809 9.15485 28.4105 8.00597 28.2116 7.54191C28.1604 7.42279 28.1072 7.28895 28.0361 7.17742C28.4559 7.0193 29.0644 6.6801 29.3162 5.99228C29.4712 5.56953 29.4621 5.22827 29.2902 4.97744ZM15.0798 4.52051H12.458C12.0445 4.52051 11.6432 4.52051 11.2833 4.70529C10.9235 4.89035 10.606 5.26048 10.3614 6.00055C10.3084 6.15986 10.2803 6.29688 10.2768 6.41572C10.2731 6.53541 10.2935 6.63674 10.3381 6.72499C10.3931 6.83239 10.4823 6.93385 10.5938 7.01925C10.7054 7.10439 10.8391 7.17407 10.9831 7.21845C10.9887 7.21994 11.0643 7.24188 11.1559 7.2682C11.2447 7.29418 11.3333 7.32058 11.4218 7.34742C11.4613 7.35968 11.505 7.37563 11.5445 7.3996C11.584 7.4233 11.6193 7.45513 11.6416 7.49953C11.6563 7.52936 11.6643 7.56202 11.665 7.59526C11.6659 7.62971 11.6602 7.66689 11.6467 7.70594C11.6132 7.80672 11.5624 7.87117 11.4655 7.91107C11.3689 7.9504 11.2262 7.9633 11.0102 7.9651H8.31211L7.8855 9.15178H10.7736C11.0452 9.15178 11.5421 9.15178 12.0195 8.94631C12.4969 8.74083 12.9548 8.33016 13.1486 7.5085C13.2217 7.19954 13.1992 6.94818 13.0796 6.75053C12.9599 6.55274 12.743 6.40973 12.4277 6.31794C12.4277 6.31794 12.3571 6.29717 12.2741 6.27291C12.1911 6.24891 12.0957 6.22127 12.0467 6.20696C11.9659 6.18355 11.904 6.13613 11.8673 6.07586C11.8307 6.01582 11.8196 5.94266 11.8405 5.86792C11.8621 5.79059 11.9145 5.72849 11.9901 5.68587C12.0661 5.64335 12.166 5.61992 12.2824 5.61992H13.9611C13.9728 5.60241 13.9835 5.58388 13.9954 5.56646C14.3022 5.1271 14.6733 4.77159 15.0798 4.52051Z" fill="#EE7F00"/>
<path d="M16.3118 6.81555C15.92 7.9018 15.6355 8.17534 15.2074 8.17534H15.2066C14.7895 8.1747 14.6433 7.9075 15.0337 6.82642C15.325 6.01921 15.7025 5.50287 16.159 5.50287H16.1593C16.5936 5.50353 16.6932 5.75838 16.3118 6.81555ZM17.6564 4.9551C17.4278 4.62402 17.0369 4.45563 16.4928 4.45508C16.1368 4.45508 15.7914 4.53787 15.4673 4.69269C15.0043 4.91465 14.5844 5.28515 14.2415 5.77674C14.019 6.09593 13.8285 6.4655 13.6789 6.87919C13.3974 7.65999 13.4007 8.29358 13.6885 8.71109C13.8519 8.94692 14.1907 9.22894 14.8802 9.22947H14.8829C16.1389 9.22947 17.0769 8.39557 17.6707 6.7508C17.8275 6.31527 18.0345 5.50325 17.6564 4.9551ZM22.676 4.5212H20.004C19.257 4.5212 18.701 4.90398 18.4383 5.62061L17.1691 9.15245H18.5594L19.2115 7.33667L20.4403 7.33768L20.7897 6.36536L19.5651 6.36452L19.7622 5.80144C19.8035 5.70068 19.9016 5.62032 20.0455 5.62032C20.1254 5.62032 21.0272 5.62059 21.4942 5.62089C21.5061 5.60346 21.5169 5.58455 21.5289 5.56713C21.8354 5.12779 22.2695 4.77229 22.676 4.5212ZM23.8913 6.81555C23.4998 7.9018 23.2153 8.17534 22.7872 8.17534H22.7863C22.369 8.1747 22.2234 7.9075 22.6135 6.82642C22.9045 6.01921 23.2823 5.50287 23.7387 5.50287H23.7393C24.1734 5.50353 24.273 5.75838 23.8913 6.81555ZM25.2362 4.9551C25.0073 4.62402 24.6167 4.45563 24.0723 4.45508C23.7166 4.45508 23.3712 4.53787 23.0474 4.69269C22.5841 4.91465 22.1644 5.28515 21.8213 5.77674C21.5985 6.09593 21.4082 6.4655 21.2588 6.87919C20.9772 7.65999 20.9805 8.29358 21.2686 8.71109C21.4315 8.94692 21.7705 9.22894 22.4606 9.22947H22.4624C23.719 9.22947 24.657 8.39557 25.2502 6.7508C25.4076 6.31527 25.6143 5.50325 25.2362 4.9551Z" fill="#EE7F00"/>
<path d="M29.3535 4.52344C29.4429 4.59516 29.5201 4.67692 29.5845 4.77059C29.7487 5.01063 29.8118 5.2961 29.7744 5.62314H30.6164L29.3469 9.15594H30.6152L31.8851 5.62314H33.5142L33.9094 4.52346L29.3535 4.52344Z" fill="#EE7F00"/>
<path d="M10.1795 9.86035C10.1495 9.94314 10.1121 10.0013 10.0676 10.0344C10.023 10.0676 9.95572 10.0842 9.86572 10.0842C9.77574 10.0842 9.72064 10.0683 9.70122 10.0361C9.6817 10.0043 9.6865 9.9483 9.71527 9.86757C9.74582 9.78329 9.78253 9.72502 9.82651 9.69242C9.87049 9.66002 9.93754 9.64355 10.0275 9.64355C10.1176 9.64355 10.1726 9.6594 10.193 9.69066C10.2133 9.7221 10.2088 9.7785 10.1795 9.86035ZM9.41278 9.86035C9.38294 9.94314 9.34615 10.0013 9.30187 10.0344C9.25789 10.0676 9.19084 10.0842 9.10087 10.0842C9.0105 10.0842 8.95578 10.0683 8.9357 10.0361C8.91543 10.0043 8.9199 9.9483 8.94891 9.86757C8.97913 9.78329 9.01653 9.72502 9.06079 9.69242C9.10506 9.66002 9.172 9.64355 9.26083 9.64355C9.35208 9.64355 9.40774 9.6594 9.42725 9.69066C9.44694 9.7221 9.44214 9.7785 9.41278 9.86035ZM9.82356 11.7298C9.77292 11.8708 9.70686 11.9968 9.62575 12.1081C9.54507 12.2197 9.45117 12.3138 9.34377 12.3906C9.23664 12.4678 9.11728 12.5262 8.98598 12.5667C8.85439 12.6069 8.71287 12.6269 8.56091 12.6269C8.4182 12.6269 8.29646 12.609 8.19599 12.5727C8.09545 12.5367 8.01924 12.4818 7.96712 12.4084C7.91539 12.3348 7.88849 12.2437 7.88611 12.1338C7.884 12.0245 7.90945 11.8963 7.96203 11.7493L8.46463 10.3508C8.4691 10.3388 8.47627 10.3283 8.48671 10.3188C8.49694 10.3095 8.51244 10.3016 8.5328 10.2957C8.55289 10.2899 8.57832 10.2851 8.60882 10.2816C8.63931 10.278 8.67726 10.2761 8.72307 10.2761C8.76768 10.2761 8.80381 10.278 8.83165 10.2816C8.85949 10.2851 8.88129 10.2899 8.89689 10.2957C8.91206 10.3016 8.92201 10.3095 8.92612 10.3188C8.93031 10.3284 8.93031 10.3388 8.92612 10.3508L8.4383 11.7082C8.40544 11.7997 8.38802 11.8789 8.38627 11.9455C8.38446 12.0127 8.39641 12.0679 8.42214 12.1117C8.44814 12.1558 8.48584 12.1885 8.53575 12.2103C8.58576 12.2323 8.64651 12.2433 8.71794 12.2433C8.79033 12.2433 8.85949 12.232 8.92467 12.2094C8.99022 12.187 9.0515 12.1537 9.1059 12.1107C9.16099 12.0675 9.21091 12.0144 9.25551 11.9508C9.29977 11.8875 9.33656 11.8156 9.36557 11.7349L9.86273 10.3508C9.86726 10.3388 9.87441 10.3283 9.88482 10.3188C9.89537 10.3095 9.91025 10.3016 9.92997 10.2957C9.94978 10.2899 9.97521 10.2851 10.0063 10.2816C10.0371 10.278 10.0751 10.2761 10.1193 10.2761C10.1639 10.2761 10.1999 10.278 10.2274 10.2816C10.2545 10.2851 10.276 10.2899 10.2913 10.2957C10.3069 10.3016 10.3162 10.3095 10.3198 10.3188C10.3234 10.3284 10.3234 10.3388 10.3189 10.3508L9.82356 11.7298ZM11.8121 10.9282C11.8285 10.8819 11.8363 10.8409 11.8354 10.804C11.8347 10.767 11.8246 10.7369 11.8052 10.7125C11.7857 10.6883 11.7572 10.6696 11.7193 10.6564C11.681 10.6435 11.6266 10.6369 11.5551 10.6369H11.3217L11.1073 11.2338H11.3651C11.4318 11.2338 11.4878 11.226 11.5333 11.2098C11.579 11.1939 11.6197 11.1721 11.6559 11.1442C11.692 11.1166 11.7237 11.0837 11.7501 11.0466C11.7759 11.0101 11.7967 10.9703 11.8121 10.9282ZM11.5758 11.9127C11.5946 11.8593 11.6033 11.8119 11.6005 11.7696C11.5981 11.7277 11.585 11.6925 11.5617 11.664C11.5378 11.6356 11.5024 11.6136 11.4551 11.5983C11.4079 11.5827 11.3424 11.5753 11.2584 11.5753H10.9846L10.7499 12.2289H11.0831C11.1474 12.2289 11.2037 12.2224 11.2525 12.2087C11.3006 12.1954 11.3464 12.175 11.3885 12.1481C11.43 12.1215 11.4671 12.0882 11.4997 12.0486C11.532 12.009 11.5572 11.9638 11.5758 11.9127ZM12.0603 11.8968C12.0309 11.9784 11.9933 12.0524 11.9469 12.1191C11.9009 12.1851 11.8491 12.2439 11.7917 12.2949C11.7342 12.3455 11.6713 12.3896 11.6041 12.4263C11.5364 12.4632 11.4653 12.4935 11.3918 12.5168C11.3172 12.5408 11.2407 12.5583 11.1632 12.5693C11.0852 12.5807 11.0002 12.5862 10.909 12.5862H10.3056C10.267 12.5862 10.2386 12.5748 10.2204 12.5513C10.2025 12.5285 10.203 12.491 10.2216 12.4386L10.9419 10.4342C10.9607 10.3822 10.9873 10.3447 11.022 10.3213C11.0567 10.2983 11.0933 10.2868 11.1318 10.2868H11.7019C11.841 10.2868 11.9547 10.2985 12.0426 10.3222C12.1306 10.3459 12.1991 10.3816 12.2478 10.4299C12.2966 10.4776 12.3253 10.5385 12.334 10.612C12.343 10.6855 12.3295 10.7719 12.2936 10.8714C12.2738 10.9266 12.2476 10.9794 12.2158 11.0287C12.1845 11.0773 12.1479 11.1222 12.1067 11.1627C12.0648 11.2032 12.0186 11.239 11.9691 11.2695C11.9188 11.3004 11.8649 11.325 11.8081 11.3439C11.868 11.3559 11.9197 11.3766 11.9637 11.4063C12.0073 11.4361 12.0409 11.4741 12.0645 11.5209C12.0881 11.5677 12.1004 11.6225 12.1013 11.6853C12.1019 11.748 12.0884 11.8185 12.0603 11.8968ZM13.757 12.4033C13.7448 12.4375 13.7328 12.4663 13.7217 12.4894C13.7104 12.5125 13.6996 12.531 13.6883 12.5451C13.6775 12.5596 13.6664 12.5698 13.6553 12.5764C13.6443 12.583 13.6335 12.5863 13.6228 12.5863H12.4824C12.4442 12.5863 12.4158 12.5746 12.3978 12.5514C12.3796 12.5283 12.3798 12.4909 12.3986 12.4387L13.119 10.4343C13.1375 10.382 13.1645 10.3445 13.1988 10.3215C13.2335 10.2984 13.2704 10.2866 13.3089 10.2866H14.442C14.4527 10.2866 14.4609 10.2899 14.4668 10.2956C14.4731 10.3016 14.4761 10.3122 14.4771 10.3265C14.4776 10.3415 14.4749 10.3607 14.4696 10.3835C14.4642 10.4069 14.4552 10.436 14.4423 10.4714C14.4304 10.5048 14.4187 10.533 14.4076 10.5561C14.3962 10.579 14.3855 10.5977 14.3744 10.6121C14.3633 10.6263 14.3526 10.6365 14.3421 10.643C14.3317 10.6496 14.3211 10.6529 14.3103 10.6529H13.5L13.2985 11.2144H13.9843C13.9949 11.2144 14.0032 11.2178 14.0098 11.224C14.0161 11.2306 14.0199 11.2409 14.0209 11.2543C14.0217 11.2681 14.0193 11.2864 14.014 11.3096C14.0085 11.3327 14.0002 11.3606 13.9882 11.3938C13.9756 11.4283 13.964 11.4565 13.953 11.4791C13.9422 11.5016 13.9314 11.5198 13.9204 11.5333C13.9099 11.5469 13.8988 11.5567 13.888 11.5628C13.8769 11.5687 13.8665 11.5718 13.8557 11.5718H13.1701L12.9371 12.2202H13.7543C13.765 12.2202 13.7735 12.2235 13.7801 12.2299C13.7864 12.2364 13.7899 12.2467 13.7905 12.261C13.7914 12.2751 13.789 12.294 13.7836 12.3171C13.778 12.34 13.7693 12.369 13.757 12.4033ZM15.9213 10.9655C15.9485 10.8899 15.9548 10.8256 15.9395 10.7737C15.9243 10.7216 15.8818 10.685 15.8122 10.6634C15.7912 10.6574 15.7664 10.6529 15.7376 10.6493C15.7093 10.6457 15.6685 10.6439 15.6159 10.6439H15.4089L15.1747 11.296H15.4099C15.4754 11.296 15.5351 11.2883 15.5902 11.2721C15.6452 11.2561 15.694 11.2336 15.7371 11.2045C15.7798 11.1764 15.8174 11.1412 15.8483 11.1004C15.8791 11.0603 15.9034 11.0153 15.9213 10.9655ZM15.9554 12.5257C15.9506 12.5389 15.9443 12.55 15.9366 12.5587C15.9287 12.5674 15.915 12.5749 15.8953 12.5809C15.8756 12.5869 15.8486 12.5911 15.8136 12.5935C15.7789 12.5956 15.7323 12.5968 15.6736 12.5968C15.6246 12.5968 15.5857 12.5956 15.5573 12.5935C15.5292 12.5911 15.5076 12.5866 15.4929 12.5799C15.4783 12.5737 15.4693 12.565 15.4658 12.5551C15.4624 12.5452 15.4613 12.5329 15.4616 12.5187L15.4427 12.0052C15.4388 11.947 15.4335 11.8954 15.4263 11.8504C15.4188 11.8054 15.4062 11.7679 15.3889 11.7377C15.3709 11.7073 15.3458 11.6849 15.3141 11.6695C15.2824 11.6539 15.2414 11.6461 15.1927 11.6461H15.0487L14.7338 12.522C14.7296 12.5341 14.7219 12.5449 14.711 12.5541C14.6999 12.5637 14.6847 12.5712 14.6649 12.5773C14.6455 12.5833 14.6204 12.588 14.5896 12.5916C14.5591 12.595 14.5211 12.5968 14.4756 12.5968C14.431 12.5968 14.3946 12.595 14.3662 12.5916C14.3374 12.588 14.3156 12.5833 14.3003 12.5773C14.2845 12.5712 14.2752 12.5637 14.2716 12.5541C14.2681 12.5449 14.2683 12.5341 14.2726 12.522L15.0227 10.4342C15.0416 10.382 15.0682 10.3445 15.1029 10.3214C15.1373 10.2984 15.1741 10.2866 15.2126 10.2866H15.8005C15.86 10.2866 15.9087 10.2882 15.9464 10.2905C15.9805 10.2924 16.0145 10.2953 16.0484 10.2993C16.1352 10.3121 16.209 10.335 16.2707 10.3667C16.3323 10.3988 16.3792 10.4405 16.4116 10.4922C16.4439 10.5438 16.4609 10.6046 16.4627 10.6748C16.4642 10.7456 16.4484 10.8263 16.4158 10.9174C16.388 10.9949 16.3532 11.0647 16.3111 11.1284C16.2697 11.1908 16.2207 11.2477 16.1651 11.2979C16.1098 11.3477 16.0482 11.3909 15.9799 11.4278C15.9117 11.4644 15.8385 11.4941 15.7601 11.5165C15.7877 11.5326 15.8126 11.553 15.834 11.5768C15.8555 11.6006 15.8731 11.6293 15.8872 11.6632C15.9016 11.6968 15.9126 11.7355 15.9204 11.7784C15.9281 11.822 15.9335 11.8708 15.9363 11.9254L15.9647 12.3784C15.9658 12.4231 15.9658 12.456 15.9641 12.4767C15.9626 12.4975 15.9596 12.514 15.9554 12.5257ZM18.8242 12.4671C18.8072 12.4956 18.7892 12.5184 18.7704 12.5355C18.7521 12.5526 18.729 12.5658 18.7012 12.5745C18.6734 12.5836 18.6396 12.5895 18.6002 12.5925C18.5606 12.5956 18.5107 12.597 18.4513 12.597C18.3845 12.597 18.3315 12.5956 18.2924 12.5925C18.2532 12.5895 18.2233 12.5836 18.2032 12.5745C18.1829 12.5658 18.1706 12.5526 18.1662 12.5355C18.162 12.5184 18.162 12.4956 18.1662 12.4671L18.3267 11.0102H18.3232L17.4557 12.4671C17.4401 12.4944 17.4239 12.5169 17.4072 12.5336C17.3905 12.5511 17.369 12.5643 17.343 12.5735C17.3166 12.5832 17.2834 12.5895 17.243 12.5925C17.2029 12.5956 17.1505 12.597 17.0863 12.597C17.0187 12.597 16.9649 12.5956 16.9256 12.5925C16.8862 12.5895 16.8566 12.5836 16.8365 12.5745C16.8162 12.5657 16.8039 12.5526 16.7998 12.5355C16.7953 12.5183 16.7946 12.4956 16.798 12.467L17.0031 10.4611C17.0079 10.4183 17.0138 10.3846 17.0216 10.3607C17.0292 10.3364 17.0423 10.3176 17.0621 10.3045C17.0812 10.2917 17.1081 10.2836 17.1425 10.2806C17.1766 10.2777 17.2239 10.2761 17.2834 10.2761C17.3385 10.2761 17.3815 10.2769 17.4133 10.2788C17.4446 10.2806 17.4674 10.2848 17.4817 10.291C17.4955 10.298 17.5033 10.3072 17.5048 10.3199C17.5063 10.3322 17.5045 10.3496 17.5 10.3721L17.2652 12.133H17.2672L18.3095 10.3843C18.322 10.3622 18.3349 10.3436 18.3477 10.3295C18.3603 10.3154 18.3771 10.3042 18.398 10.2968C18.419 10.289 18.4455 10.2836 18.4784 10.2806C18.5111 10.2777 18.5535 10.2761 18.6062 10.2761C18.6624 10.2761 18.7067 10.2773 18.7393 10.2797C18.7719 10.2822 18.7956 10.2872 18.8111 10.2947C18.8264 10.3025 18.8354 10.3136 18.8386 10.3277C18.8416 10.3418 18.8413 10.3609 18.8374 10.3843L18.6373 12.133H18.641L19.6698 10.3771C19.6801 10.3586 19.6905 10.3424 19.7016 10.3285C19.712 10.3151 19.727 10.3042 19.7462 10.2968C19.7653 10.289 19.7907 10.2836 19.8222 10.2806C19.8536 10.2776 19.8966 10.276 19.952 10.276C20.0031 10.276 20.0426 10.2776 20.0705 10.2806C20.0979 10.2836 20.1159 10.2917 20.1243 10.3045C20.132 10.3176 20.1308 10.3369 20.1201 10.3625C20.109 10.3877 20.0904 10.4225 20.0641 10.4663L18.8242 12.4671ZM21.2036 12.4033C21.1933 12.4326 21.1815 12.4613 21.1684 12.4894C21.157 12.5125 21.1462 12.531 21.1348 12.5451C21.1241 12.5596 21.113 12.5698 21.1019 12.5764C21.0909 12.583 21.0801 12.5863 21.0693 12.5863H19.9291C19.8908 12.5863 19.8624 12.5746 19.8441 12.5514C19.8262 12.5283 19.8264 12.4909 19.8453 12.4387L20.5656 10.4343C20.5841 10.382 20.6111 10.3445 20.6454 10.3215C20.6802 10.2984 20.717 10.2866 20.7555 10.2866H21.8886C21.8994 10.2866 21.9075 10.2899 21.9134 10.2956C21.9197 10.3016 21.923 10.3122 21.9237 10.3265C21.9239 10.3415 21.9216 10.3607 21.9161 10.3835C21.9107 10.4069 21.9018 10.436 21.8889 10.4714C21.8789 10.5003 21.8673 10.5286 21.8539 10.5561C21.8431 10.579 21.8321 10.5977 21.821 10.6121C21.8099 10.6263 21.7991 10.6365 21.7887 10.643C21.7783 10.6496 21.7675 10.6529 21.757 10.6529H20.9466L20.7448 11.2144H21.4307C21.4415 11.2144 21.4495 11.2178 21.4564 11.224C21.4627 11.2306 21.4662 11.2409 21.4672 11.2543C21.4683 11.2681 21.4659 11.2864 21.4606 11.3096C21.4552 11.3327 21.4468 11.3606 21.4349 11.3938C21.4223 11.4283 21.4106 11.4565 21.3996 11.4791C21.3885 11.5016 21.3777 11.5198 21.367 11.5333C21.3562 11.5469 21.3458 11.5567 21.3346 11.5628C21.3236 11.5687 21.3128 11.5718 21.3023 11.5718H20.6165L20.3834 12.2202H21.2007C21.2114 12.2202 21.2198 12.2235 21.2264 12.2299C21.2326 12.2364 21.2363 12.2467 21.2371 12.261C21.2381 12.2751 21.2356 12.294 21.2302 12.3171C21.2249 12.34 21.2159 12.369 21.2036 12.4033ZM22.1822 12.5222C22.178 12.5342 22.1705 12.5448 22.1594 12.5543C22.1484 12.5636 22.1331 12.5714 22.1133 12.5771C22.0936 12.5831 22.0688 12.5879 22.038 12.5915C22.0075 12.5951 21.9695 12.597 21.9241 12.597C21.8795 12.597 21.843 12.5951 21.8146 12.5915C21.7859 12.5879 21.764 12.5831 21.7485 12.5771C21.7329 12.5714 21.7231 12.5636 21.7191 12.5543C21.7147 12.5448 21.7149 12.5342 21.7191 12.5222L22.4993 10.3506C22.5037 10.339 22.5113 10.3282 22.5223 10.3189C22.5334 10.3093 22.5493 10.3018 22.5692 10.2958C22.5896 10.2897 22.6148 10.285 22.6455 10.2814C22.6761 10.278 22.7135 10.2761 22.758 10.2761C22.8034 10.2761 22.8403 10.278 22.8684 10.2814C22.8962 10.285 22.918 10.2897 22.9333 10.2958C22.9489 10.3018 22.9588 10.3093 22.963 10.3189C22.9671 10.3282 22.9671 10.339 22.9626 10.3506L22.1822 12.5222ZM24.4289 11.8968C24.3852 12.0177 24.3248 12.1236 24.2479 12.2149C24.1705 12.3064 24.0832 12.3822 23.985 12.4431C23.8871 12.5042 23.7816 12.5502 23.6689 12.581C23.5571 12.6115 23.4418 12.627 23.326 12.627C23.2477 12.627 23.1771 12.6203 23.1146 12.6075C23.052 12.5945 22.9982 12.579 22.9533 12.5606C22.9087 12.5421 22.8726 12.5229 22.8454 12.5028C22.8181 12.4827 22.7992 12.4649 22.79 12.4494C22.7804 12.4341 22.7772 12.4119 22.7813 12.3828C22.7852 12.3537 22.7969 12.312 22.8167 12.2574C22.8298 12.2208 22.842 12.1899 22.8534 12.1652C22.8647 12.1401 22.8759 12.12 22.8866 12.1047C22.8974 12.0891 22.9082 12.0782 22.9196 12.072C22.9306 12.0654 22.9419 12.062 22.9536 12.062C22.97 12.062 22.9896 12.072 23.0125 12.0912C23.0353 12.111 23.0658 12.1326 23.1041 12.1563C23.1424 12.1797 23.1906 12.2016 23.2483 12.221C23.306 12.2406 23.3778 12.2505 23.463 12.2505C23.5193 12.2505 23.5719 12.2436 23.6213 12.2297C23.6709 12.2163 23.7152 12.1971 23.7553 12.1721C23.7949 12.1474 23.8301 12.1162 23.8593 12.0798C23.889 12.043 23.9123 12.0016 23.9282 11.9571C23.9471 11.9048 23.9488 11.8605 23.9341 11.8231C23.9195 11.7855 23.895 11.7525 23.8603 11.7237C23.8256 11.6943 23.7843 11.6674 23.7365 11.6418C23.6866 11.6155 23.6371 11.5885 23.588 11.5609C23.5379 11.5328 23.4903 11.5003 23.4457 11.4639C23.4017 11.4284 23.3653 11.3843 23.3386 11.3343C23.3117 11.284 23.2967 11.2245 23.2931 11.1556C23.2899 11.0871 23.3054 11.0047 23.3401 10.9087C23.3796 10.7986 23.4343 10.7017 23.505 10.618C23.5752 10.5346 23.6545 10.4653 23.7428 10.4104C23.8309 10.3552 23.9264 10.3141 24.0293 10.2868C24.1305 10.2597 24.2348 10.246 24.3395 10.246C24.3934 10.246 24.4454 10.2502 24.4965 10.2584C24.5474 10.2667 24.5934 10.2779 24.6353 10.2923C24.6766 10.3063 24.7125 10.3222 24.7424 10.3402C24.7724 10.3579 24.7912 10.3726 24.7984 10.3843C24.8058 10.3963 24.8101 10.4065 24.8112 10.4149C24.8124 10.423 24.8119 10.4342 24.81 10.4475C24.8082 10.4614 24.804 10.4784 24.7975 10.4992C24.7895 10.5252 24.7809 10.551 24.7717 10.5766C24.7591 10.6108 24.7477 10.6399 24.7376 10.6632C24.7271 10.6872 24.7175 10.7068 24.708 10.722C24.6982 10.7374 24.6883 10.7488 24.678 10.756C24.6679 10.7629 24.6559 10.7666 24.6437 10.7664C24.6308 10.7664 24.6132 10.7584 24.591 10.7419C24.5692 10.7251 24.5411 10.7071 24.507 10.6876C24.4732 10.6677 24.4322 10.6501 24.3841 10.6342C24.3362 10.618 24.2799 10.6102 24.2157 10.6102C24.1654 10.6102 24.119 10.6165 24.0775 10.6289C24.0353 10.6414 23.9979 10.6585 23.965 10.6804C23.9321 10.7023 23.9036 10.7287 23.8807 10.7595C23.8576 10.7891 23.8394 10.8221 23.8268 10.8574C23.8085 10.9082 23.8065 10.9524 23.8205 10.9896C23.8346 11.0268 23.8593 11.0602 23.8953 11.0893C23.9308 11.118 23.9733 11.1454 24.023 11.1709C24.0733 11.1969 24.1231 11.2239 24.1726 11.2516C24.2231 11.2801 24.2714 11.3125 24.317 11.3484C24.3625 11.3848 24.399 11.4279 24.4265 11.4783C24.4541 11.5287 24.4693 11.5878 24.4732 11.6559C24.4767 11.724 24.4619 11.8045 24.4289 11.8968ZM26.8437 11.7298C26.7929 11.8708 26.7271 11.9968 26.6464 12.1081C26.5653 12.2197 26.4713 12.3138 26.364 12.3906C26.2568 12.4678 26.1378 12.5262 26.0062 12.5667C25.8746 12.6069 25.7331 12.6269 25.5808 12.6269C25.4385 12.6269 25.3167 12.609 25.2162 12.5727C25.1157 12.5367 25.0394 12.4818 24.9873 12.4084C24.9356 12.3348 24.9085 12.2437 24.9067 12.1338C24.9043 12.0245 24.9297 11.8963 24.9823 11.7493L25.4848 10.3508C25.4891 10.3388 25.4962 10.3283 25.5069 10.3188C25.5174 10.3095 25.5327 10.3016 25.5527 10.2957C25.5731 10.2899 25.5986 10.2851 25.629 10.2816C25.6599 10.278 25.6978 10.2761 25.7433 10.2761C25.7879 10.2761 25.824 10.278 25.8519 10.2816C25.8797 10.2851 25.9015 10.2899 25.9171 10.2957C25.9323 10.3016 25.9421 10.3095 25.9461 10.3188C25.9506 10.3284 25.9506 10.3388 25.9461 10.3508L25.4585 11.7082C25.4256 11.7997 25.4083 11.8789 25.4064 11.9455C25.4047 12.0127 25.4167 12.0679 25.4424 12.1117C25.4681 12.1558 25.5061 12.1885 25.556 12.2103C25.606 12.2323 25.6667 12.2433 25.7382 12.2433C25.8103 12.2433 25.8794 12.232 25.9449 12.2094C26.0105 12.187 26.0717 12.1536 26.1262 12.1107C26.1815 12.0675 26.2314 12.0144 26.2757 11.9508C26.32 11.8875 26.3568 11.8156 26.3858 11.7349L26.8833 10.3508C26.8875 10.3388 26.8947 10.3283 26.9051 10.3188C26.9156 10.3095 26.9305 10.3016 26.9502 10.2957C26.97 10.2899 26.9954 10.2851 27.0265 10.2816C27.0576 10.278 27.0953 10.2761 27.1395 10.2761C27.1841 10.2761 27.2201 10.278 27.2476 10.2816C27.2747 10.2851 27.2963 10.2899 27.3116 10.2957C27.3272 10.3016 27.3364 10.3095 27.34 10.3188C27.3439 10.3284 27.3436 10.3388 27.3394 10.3508L26.8437 11.7298ZM29.1194 12.4227C29.1095 12.45 29.0964 12.4743 29.079 12.4955C29.063 12.516 29.0439 12.534 29.0224 12.5487C29.002 12.5629 28.9792 12.5734 28.9552 12.5798C28.9309 12.5865 28.9082 12.5898 28.8857 12.5898H28.6893C28.6483 12.5898 28.6144 12.5855 28.5875 12.5772C28.5613 12.5695 28.5381 12.5536 28.5214 12.5318C28.5041 12.5102 28.4906 12.4806 28.4805 12.4431C28.4706 12.4059 28.4616 12.3576 28.4538 12.2985L28.275 11.2231C28.2647 11.1545 28.2562 11.0855 28.2495 11.0164C28.2422 10.9446 28.2377 10.8725 28.236 10.8004H28.2325C28.2065 10.8857 28.1795 10.9707 28.1514 11.0554C28.1221 11.1431 28.0917 11.2306 28.0604 11.3176L27.6282 12.5205C27.6241 12.5323 27.6169 12.5429 27.6072 12.5526C27.5974 12.5618 27.5833 12.5697 27.565 12.5762C27.5471 12.5828 27.5239 12.588 27.496 12.5915C27.4676 12.5952 27.4323 12.597 27.3902 12.597C27.3494 12.597 27.3162 12.5952 27.2905 12.5915C27.2651 12.588 27.2457 12.5828 27.2327 12.5762C27.2199 12.5697 27.2125 12.5618 27.2098 12.5526C27.2074 12.5429 27.2083 12.5323 27.2125 12.5205L27.9552 10.4539C27.9752 10.3982 28.006 10.3564 28.0482 10.3285C28.0904 10.301 28.1352 10.2869 28.1819 10.2869H28.4293C28.4736 10.2869 28.5097 10.2905 28.5373 10.2983C28.5648 10.306 28.5876 10.319 28.6052 10.3367C28.6226 10.3544 28.6363 10.379 28.6462 10.4105C28.6558 10.4417 28.6635 10.4803 28.6693 10.5269L28.8092 11.3671C28.8167 11.4181 28.8242 11.4681 28.8316 11.5174C28.8391 11.5666 28.846 11.6158 28.8516 11.665C28.8574 11.7139 28.8627 11.7621 28.8678 11.8099C28.8733 11.857 28.8778 11.9043 28.8819 11.9517H28.8834C28.9097 11.869 28.9381 11.7826 28.9686 11.6923C28.998 11.6063 29.028 11.5205 29.0587 11.4349L29.4464 10.3562C29.4506 10.3442 29.458 10.3337 29.4685 10.324C29.4787 10.3148 29.4933 10.3064 29.5125 10.2992C29.5316 10.2923 29.5549 10.2872 29.5827 10.2841C29.6109 10.2811 29.6459 10.2797 29.688 10.2797C29.7275 10.2797 29.7604 10.2811 29.7861 10.2841C29.8122 10.2872 29.831 10.2923 29.843 10.2992C29.8552 10.3064 29.8624 10.3148 29.8648 10.324C29.8675 10.3337 29.8663 10.3442 29.8621 10.3562L29.1194 12.4227ZM32.2404 10.6439C32.2281 10.6785 32.216 10.7078 32.2038 10.7327C32.1921 10.7576 32.1808 10.7778 32.1706 10.7924C32.1598 10.8072 32.1497 10.8176 32.1398 10.8237C32.13 10.8293 32.12 10.8323 32.1096 10.8323C32.0943 10.8323 32.0737 10.8215 32.0471 10.8003C32.0211 10.7793 31.9842 10.7562 31.9373 10.7309C31.8901 10.7064 31.8311 10.683 31.7613 10.6616C31.6911 10.6403 31.6046 10.6299 31.5015 10.6299C31.3926 10.6297 31.2846 10.6492 31.1827 10.6875C31.08 10.7259 30.9846 10.7804 30.8958 10.8509C30.8072 10.9214 30.7282 11.0063 30.6592 11.105C30.5897 11.204 30.5332 11.3132 30.4902 11.4328C30.443 11.5645 30.4186 11.6804 30.4172 11.7806C30.4157 11.8804 30.4339 11.9644 30.4716 12.0316C30.5093 12.0994 30.5655 12.1501 30.6404 12.1847C30.7151 12.2191 30.8051 12.2363 30.9104 12.2363C30.9615 12.2363 31.0151 12.2302 31.0696 12.2185C31.1245 12.2065 31.1779 12.1886 31.229 12.1651L31.4204 11.632H30.9906C30.9697 11.632 30.958 11.6189 30.9559 11.5918C30.9535 11.5652 30.9642 11.5202 30.9873 11.4559C30.9992 11.423 31.0106 11.3951 31.0217 11.3726C31.0325 11.3499 31.0435 11.332 31.054 11.3183C31.0651 11.3048 31.0755 11.2946 31.086 11.2883C31.0965 11.2817 31.1073 11.2784 31.1177 11.2784H31.8844C31.9029 11.2784 31.9184 11.2817 31.9307 11.2883C31.943 11.2946 31.9522 11.3041 31.9589 11.3174C31.9654 11.3306 31.9681 11.3462 31.9672 11.3645C31.9666 11.3828 31.9621 11.4038 31.9537 11.4278L31.6248 12.3427C31.6121 12.3783 31.5946 12.4096 31.573 12.436C31.5508 12.4626 31.5182 12.4836 31.4745 12.4992C31.4312 12.5145 31.3782 12.5305 31.3163 12.5472C31.2536 12.5638 31.1902 12.578 31.1264 12.5898C31.0628 12.6013 30.9987 12.6102 30.9344 12.6163C30.871 12.6222 30.8082 12.6253 30.7459 12.6253C30.5647 12.6253 30.4118 12.5988 30.2877 12.5463C30.1632 12.4932 30.0693 12.4171 30.0059 12.3171C29.9425 12.217 29.9104 12.0949 29.9095 11.9509C29.9086 11.8069 29.941 11.6437 30.0065 11.4613C30.0741 11.2729 30.1629 11.104 30.2727 10.9541C30.3828 10.804 30.5081 10.6768 30.6487 10.5718C30.7896 10.467 30.9424 10.3868 31.1081 10.331C31.2739 10.2755 31.4458 10.2476 31.625 10.2476C31.7232 10.2476 31.8102 10.2545 31.8858 10.2683C31.9616 10.2818 32.0261 10.2984 32.0794 10.3178C32.1327 10.3373 32.1751 10.3586 32.2068 10.3808C32.2382 10.4036 32.2591 10.4228 32.269 10.4396C32.2789 10.4561 32.2819 10.4795 32.278 10.5097C32.2741 10.5402 32.2616 10.5848 32.2404 10.6439Z" fill="#3A3A3A"/>
</g>
<defs>
<clipPath id="clip0_1241_45785">
<rect width="26.6637" height="8.82397" fill="white" transform="translate(7.55786 4.12012)"/>
</clipPath>
</defs>
</svg>
