<svg width="25" height="17" viewBox="0 0 25 17" fill="none" xmlns="http://www.w3.org/2000/svg">
<rect x="-0.00170898" y="0.237305" width="24.7923" height="16.526" rx="2.06575" fill="#EB6F93"/>
<path d="M7.43672 15.0077C7.99861 15.0077 8.42828 14.6309 8.42828 14.0789C8.42828 13.5666 8.06471 13.3451 7.61851 13.2129C7.33426 13.1303 7.15578 13.0675 7.15578 12.8659C7.15578 12.6973 7.27807 12.5651 7.47308 12.5651C7.63834 12.5651 7.76063 12.661 7.84987 12.8064L8.3159 12.5122C8.17048 12.1916 7.84326 12.0264 7.48961 12.0264C6.92772 12.0264 6.57076 12.4296 6.57076 12.8989C6.57076 13.2724 6.79551 13.56 7.34748 13.7219C7.64826 13.8079 7.83996 13.8674 7.83996 14.1053C7.83996 14.3301 7.678 14.4689 7.44333 14.4689C7.19214 14.4689 7.00044 14.307 6.88475 14.1582L6.49805 14.5449C6.70627 14.8292 7.0434 15.0077 7.43672 15.0077ZM9.70739 15.0077C9.11246 15.0077 8.6299 14.5317 8.6299 13.9533C8.6299 13.3749 9.11246 12.8989 9.70739 12.8989C10.3023 12.8989 10.7849 13.3749 10.7849 13.9533C10.7849 14.5317 10.3023 15.0077 9.70739 15.0077ZM9.70739 14.4788C9.99494 14.4788 10.223 14.2508 10.223 13.9533C10.223 13.6558 9.99494 13.4278 9.70739 13.4278C9.41654 13.4278 9.19178 13.6558 9.19178 13.9533C9.19178 14.2541 9.41984 14.4788 9.70739 14.4788ZM12.1764 12.5916V12.0627H12.0937C11.4096 12.0627 11.0724 12.5188 11.0724 13.0543V14.9548H11.6343V14.1219C11.6343 13.8442 11.8492 13.6459 12.1598 13.6393V13.1039C11.9384 13.1039 11.7599 13.17 11.6343 13.3022V13.0873C11.6343 12.737 11.8624 12.5783 12.1764 12.5916ZM13.4026 15.0077C12.8077 15.0077 12.3251 14.5317 12.3251 13.9533C12.3251 13.3749 12.8077 12.8989 13.4026 12.8989C13.9975 12.8989 14.4801 13.3749 14.4801 13.9533C14.4801 14.5317 13.9975 15.0077 13.4026 15.0077ZM13.4026 14.4788C13.6935 14.4788 13.9182 14.2508 13.9182 13.9533C13.9182 13.6558 13.6902 13.4278 13.4026 13.4278C13.115 13.4278 12.887 13.6558 12.887 13.9533C12.887 14.2541 13.115 14.4788 13.4026 14.4788ZM15.3295 13.1832V12.9551H14.7842V14.9548H15.3461V14.0425C15.3461 13.712 15.5411 13.5269 15.8782 13.5269V12.9254C15.6237 12.9155 15.4419 13.0014 15.3295 13.1832ZM16.764 13.9335V13.4443C16.8896 13.5765 17.0648 13.6426 17.2895 13.6426V13.1105C16.9854 13.1039 16.764 12.8989 16.764 12.6279V12.3139H16.2021V13.9665C16.2021 14.502 16.5359 14.9581 17.2234 14.9581H17.306V14.4292C16.992 14.4392 16.764 14.2838 16.764 13.9335ZM17.977 14.9878C18.1819 14.9878 18.3538 14.8193 18.3538 14.611C18.3538 14.4061 18.1852 14.2342 17.977 14.2342C17.7688 14.2342 17.6002 14.4028 17.6002 14.611C17.6002 14.8193 17.7688 14.9878 17.977 14.9878Z" fill="white"/>
<path d="M11.5018 7.91877C11.677 8.09064 11.6803 8.37159 11.5084 8.54676L11.4754 8.58312C11.3035 8.75829 11.0226 8.7616 10.8474 8.58973L9.85585 7.60809C9.58152 7.33376 9.54516 6.99662 9.71703 6.81814L9.75008 6.78179C9.8922 6.63305 10.1269 6.61983 10.2888 6.74543C10.3648 6.80492 10.4772 6.7917 10.54 6.71568C10.5995 6.63966 10.5863 6.52729 10.5103 6.46449C10.2029 6.22321 9.7633 6.25296 9.49228 6.53059L9.45922 6.56695C9.13862 6.89747 9.20142 7.45605 9.60135 7.85598L10.5962 8.84753C10.9168 9.15492 11.4225 9.14831 11.7332 8.83101L11.7696 8.79465C12.0736 8.47735 12.067 7.97496 11.753 7.66427C11.6836 7.59487 11.5712 7.59487 11.5018 7.66758C11.4291 7.73699 11.4291 7.84937 11.5018 7.91877ZM10.9069 2.5941L11.3134 5.93235C11.3234 6.0282 11.4126 6.10092 11.5118 6.0877C11.6076 6.07778 11.6803 5.98854 11.6671 5.88938L11.2606 2.53792L11.2573 2.51808C11.1878 2.24045 11.3597 1.92976 11.5911 1.88018C11.72 1.85374 11.8555 1.87688 11.9646 1.94959C12.0736 2.0223 12.1497 2.13468 12.1761 2.26358L12.8834 5.28453C12.9065 5.38038 13.0024 5.43988 13.0982 5.41674C13.1941 5.3936 13.2536 5.29775 13.2305 5.2019L12.5264 2.19087C12.4835 1.97273 12.3513 1.77772 12.1629 1.65212C11.9745 1.52653 11.7398 1.48356 11.5184 1.52983C11.0821 1.62238 10.7978 2.13138 10.9069 2.5941Z" fill="white"/>
<path d="M14.6365 6.5131L15.4397 2.51381C15.5322 2.08413 15.2777 1.65115 14.8514 1.52555C14.3754 1.40657 13.8962 1.6842 13.7739 2.15354L12.8848 5.19763C12.8583 5.29348 12.9112 5.39263 13.0071 5.41908C13.1029 5.44552 13.2021 5.39263 13.2285 5.29678L14.1176 2.24939C14.1936 1.96845 14.4779 1.79989 14.7555 1.86929C14.9935 1.94201 15.1422 2.1899 15.0894 2.44109L14.2862 6.44369C14.2664 6.53954 14.3292 6.63539 14.425 6.65522C14.5242 6.67174 14.62 6.60895 14.6365 6.5131ZM12.6171 10.367C11.3446 10.367 10.2836 9.43489 10.2836 8.10951C10.2836 8.01035 10.2043 7.93102 10.1051 7.93102C10.006 7.93102 9.92663 8.01035 9.92663 8.10951C9.92663 9.64312 11.1595 10.7239 12.6171 10.7239C12.7162 10.7239 12.7955 10.6446 12.7955 10.5454C12.7955 10.4463 12.7162 10.367 12.6171 10.367ZM11.9891 7.25015C11.9626 7.34931 11.8998 7.43855 11.8139 7.49474L11.7742 7.51788C11.5693 7.65669 11.2917 7.60381 11.1529 7.39889L10.3728 6.23876C10.1613 5.91486 10.1877 5.57772 10.3927 5.4356L10.429 5.40916C10.6934 5.25712 10.9149 5.3728 11.1429 5.70663L11.7941 6.67836C11.8503 6.76098 11.9593 6.78082 12.042 6.72793C12.1246 6.67505 12.1444 6.56267 12.0915 6.48004L11.4404 5.50832C11.1165 5.03898 10.7199 4.83075 10.2406 5.10839L10.1911 5.14144C9.80765 5.40255 9.76137 5.96443 10.0754 6.43708L10.8554 7.60051C11.1066 7.96738 11.6024 8.06323 11.9692 7.81534L12.0089 7.7889C12.1643 7.68314 12.2766 7.52449 12.3295 7.3427C12.356 7.24685 12.2998 7.151 12.2039 7.12456C12.1114 7.09811 12.0155 7.1543 11.9891 7.25015Z" fill="white"/>
<path d="M13.1686 7.83904C12.7985 8.04727 12.5671 8.43397 12.5406 9.0256C12.534 9.12476 12.6101 9.20739 12.7092 9.214C12.8084 9.21731 12.891 9.14459 12.8976 9.04544C12.924 8.50999 13.1323 8.22244 13.4661 8.09684C13.6446 8.03074 13.8396 8.01752 14.0115 8.03404L14.0544 8.04066C14.2825 8.08362 14.3552 7.74319 14.1271 7.6903L12.7555 7.38292C12.1143 7.20775 12.0151 6.96977 12.1341 6.57315C12.187 6.40128 12.2895 6.31204 12.4514 6.27568C12.5572 6.25254 12.6729 6.25585 12.7852 6.27568C12.8183 6.28229 12.8414 6.2856 12.8513 6.2889L14.9336 6.77477L14.9733 6.78799C15.0063 6.80121 15.0427 6.82765 15.079 6.86401C15.2179 7.01274 15.2972 7.29368 15.2575 7.75641C15.122 9.37595 14.3684 10.3807 12.577 10.3642C12.4778 10.3642 12.3985 10.4435 12.3985 10.5394C12.3985 10.6385 12.4778 10.7179 12.5737 10.7179C14.5833 10.7344 15.4624 9.56766 15.6112 7.78285C15.6574 7.22758 15.555 6.84748 15.3401 6.61942C15.2212 6.49382 15.0956 6.43433 14.9997 6.42111L12.9406 5.94186C12.9274 5.93855 12.8943 5.92863 12.848 5.92202C12.6927 5.89558 12.5307 5.89228 12.3721 5.92533C12.0944 5.98813 11.8829 6.1633 11.7937 6.46738C11.6218 7.03918 11.8036 7.48869 12.6695 7.72336L13.1686 7.83904Z" fill="white"/>
</svg>
