<svg width="25" height="17" viewBox="0 0 25 17" fill="none" xmlns="http://www.w3.org/2000/svg">
<g clip-path="url(#clip0_1241_45760)">
<path d="M0 2.30305C0 1.16217 0.924867 0.237305 2.06575 0.237305H22.7232C23.8641 0.237305 24.789 1.16217 24.789 2.30305V14.6975C24.789 15.8384 23.8641 16.7633 22.7232 16.7633H2.06575C0.924866 16.7633 0 15.8384 0 14.6975V2.30305Z" fill="#FDEACE"/>
<path d="M14.9808 3.60861L9.64648 3.62695L9.80813 13.3927L15.1424 13.3743L14.9808 3.60861Z" fill="#FF5F00"/>
<path d="M9.99763 8.52887C9.96462 6.5426 10.8544 4.77772 12.2481 3.63293C11.1961 2.80743 9.87728 2.31103 8.44763 2.31593C5.06072 2.32753 2.36677 5.1177 2.42389 8.55481C2.481 11.9919 5.26738 14.7633 8.65429 14.7517C10.0839 14.7468 11.3861 14.2415 12.4105 13.4088C10.9793 12.291 10.0306 10.5151 9.99763 8.52887Z" fill="#EB001B"/>
<path d="M22.3652 8.44569C22.4223 11.8828 19.7284 14.673 16.3415 14.6846C14.9118 14.6895 13.593 14.1931 12.541 13.3676C13.9517 12.2227 14.8245 10.4579 14.7915 8.47163C14.7585 6.48536 13.8101 4.72677 12.3785 3.59166C13.403 2.75905 14.7052 2.25367 16.1348 2.24878C19.5217 2.23718 22.3084 5.02585 22.3652 8.44569Z" fill="#F79E1B"/>
</g>
<defs>
<clipPath id="clip0_1241_45760">
<rect width="24.789" height="16.526" fill="white" transform="translate(0 0.237305)"/>
</clipPath>
</defs>
</svg>
