<svg width="25" height="17" viewBox="0 0 25 17" fill="none" xmlns="http://www.w3.org/2000/svg">
<g clip-path="url(#clip0_1241_45762)">
<path d="M-0.00146484 2.30305C-0.00146484 1.16217 0.923402 0.237305 2.06428 0.237305H22.7218C23.8626 0.237305 24.7875 1.16217 24.7875 2.30305V14.6975C24.7875 15.8384 23.8626 16.7633 22.7218 16.7633H2.06428C0.923402 16.7633 -0.00146484 15.8384 -0.00146484 14.6975V2.30305Z" fill="#F9F9F9"/>
<path fill-rule="evenodd" clip-rule="evenodd" d="M7.7361 10.5352H6.77665C6.71099 10.5352 6.65515 10.5829 6.64492 10.6477L6.25687 13.108C6.24915 13.1565 6.28675 13.2003 6.33599 13.2003H6.79404C6.8597 13.2003 6.91554 13.1526 6.92578 13.0877L7.03044 12.4241C7.04053 12.3591 7.09651 12.3114 7.16203 12.3114H7.46576C8.09778 12.3114 8.46252 12.0056 8.55782 11.3995C8.60074 11.1344 8.55964 10.9261 8.43544 10.7801C8.29911 10.6199 8.0572 10.5352 7.7361 10.5352ZM7.84679 11.4338C7.79433 11.778 7.53128 11.778 7.27693 11.778H7.13215L7.23372 11.135C7.23975 11.0962 7.27342 11.0676 7.3127 11.0676H7.37906C7.55232 11.0676 7.71578 11.0676 7.80024 11.1663C7.85056 11.2253 7.86601 11.3128 7.84679 11.4338ZM10.6041 11.4227H10.1447C10.1055 11.4227 10.0717 11.4513 10.0657 11.4902L10.0453 11.6187L10.0132 11.5722C9.91373 11.4278 9.69196 11.3795 9.47057 11.3795C8.96281 11.3795 8.52919 11.7641 8.44473 12.3035C8.40084 12.5726 8.46323 12.8298 8.61586 13.0093C8.7559 13.1743 8.95625 13.243 9.19458 13.243C9.60366 13.243 9.83057 12.9799 9.83057 12.9799L9.81005 13.1077C9.80232 13.1565 9.83991 13.2002 9.88887 13.2002H10.3027C10.3686 13.2002 10.4241 13.1525 10.4345 13.0876L10.6828 11.515C10.6907 11.4667 10.6532 11.4227 10.6041 11.4227ZM9.96366 12.317C9.91932 12.5794 9.71098 12.7556 9.44531 12.7556C9.3119 12.7556 9.20523 12.7129 9.1368 12.6318C9.06889 12.5513 9.04305 12.4366 9.06467 12.309C9.10609 12.0487 9.31794 11.8668 9.57958 11.8668C9.71 11.8668 9.81609 11.9101 9.88595 11.9919C9.95593 12.0745 9.98372 12.1898 9.96366 12.317ZM12.5894 11.4226H13.0511C13.1158 11.4226 13.1535 11.4952 13.1168 11.5482L11.5811 13.7648C11.5563 13.8007 11.5153 13.8221 11.4716 13.8221H11.0104C10.9455 13.8221 10.9076 13.749 10.9452 13.6958L11.4233 13.0208L10.9148 11.5284C10.8972 11.4765 10.9355 11.4226 10.9907 11.4226H11.4443C11.5033 11.4226 11.5553 11.4613 11.5723 11.5178L11.8422 12.4191L12.479 11.4811C12.504 11.4445 12.5454 11.4226 12.5894 11.4226Z" fill="#253B80"/>
<path fill-rule="evenodd" clip-rule="evenodd" d="M17.5952 13.1081L17.989 10.6028C17.995 10.5639 18.0287 10.5353 18.0679 10.5352H18.5112C18.5601 10.5352 18.5977 10.579 18.59 10.6276L18.2017 13.0878C18.1915 13.1527 18.1357 13.2004 18.0699 13.2004H17.674C17.6251 13.2004 17.5875 13.1567 17.5952 13.1081ZM14.5796 10.5353H13.62C13.5545 10.5353 13.4987 10.583 13.4884 10.6478L13.1004 13.1081C13.0926 13.1567 13.1302 13.2004 13.1793 13.2004H13.6716C13.7174 13.2004 13.7565 13.1671 13.7637 13.1216L13.8738 12.4242C13.8839 12.3592 13.9399 12.3116 14.0054 12.3116H14.309C14.9411 12.3116 15.3058 12.0057 15.4012 11.3997C15.4442 11.1345 15.4029 10.9262 15.2787 10.7802C15.1425 10.6201 14.9007 10.5353 14.5796 10.5353ZM14.6903 11.4339C14.638 11.7782 14.3749 11.7782 14.1204 11.7782H13.9758L14.0775 11.1352C14.0836 11.0963 14.1169 11.0677 14.1563 11.0677H14.2227C14.3958 11.0677 14.5594 11.0677 14.6438 11.1665C14.6942 11.2254 14.7095 11.3129 14.6903 11.4339ZM17.4474 11.4228H16.9883C16.9488 11.4228 16.9153 11.4515 16.9094 11.4904L16.8891 11.6188L16.8568 11.5723C16.7573 11.4279 16.5357 11.3797 16.3143 11.3797C15.8065 11.3797 15.3731 11.7642 15.2886 12.3037C15.2448 12.5727 15.307 12.83 15.4596 13.0094C15.5999 13.1744 15.8 13.2431 16.0383 13.2431C16.4474 13.2431 16.6742 12.9801 16.6742 12.9801L16.6538 13.1078C16.6461 13.1566 16.6837 13.2004 16.7329 13.2004H17.1466C17.2121 13.2004 17.268 13.1526 17.2782 13.0877L17.5267 11.5152C17.5343 11.4668 17.4967 11.4228 17.4474 11.4228ZM16.807 12.3171C16.7629 12.5796 16.5543 12.7558 16.2886 12.7558C16.1554 12.7558 16.0486 12.713 15.9801 12.6319C15.9122 12.5514 15.8867 12.4367 15.908 12.3091C15.9496 12.0488 16.1612 11.8669 16.4229 11.8669C16.5534 11.8669 16.6594 11.9102 16.7293 11.992C16.7995 12.0747 16.8273 12.19 16.807 12.3171Z" fill="#179BD7"/>
<path d="M11.2869 9.65584L11.4048 8.90664L11.1421 8.90053H9.88745L10.7594 3.37197C10.762 3.35527 10.7709 3.33971 10.7837 3.32866C10.7966 3.31761 10.8131 3.31152 10.8302 3.31152H12.9457C13.648 3.31152 14.1327 3.45767 14.3857 3.74613C14.5044 3.88145 14.5799 4.02286 14.6165 4.17848C14.6548 4.34177 14.6555 4.53686 14.618 4.7748L14.6153 4.79217V4.94463L14.734 5.01184C14.8339 5.06484 14.9132 5.12551 14.9741 5.19498C15.0757 5.31067 15.1413 5.45772 15.169 5.63206C15.1977 5.81136 15.1882 6.02472 15.1413 6.26627C15.0872 6.54413 14.9997 6.78613 14.8815 6.98415C14.7728 7.16661 14.6343 7.31791 14.4699 7.43523C14.3129 7.54664 14.1264 7.63123 13.9155 7.68538C13.7111 7.73855 13.4782 7.76543 13.2227 7.76543H13.058C12.9403 7.76543 12.8259 7.80782 12.7362 7.88384C12.6462 7.96143 12.5866 8.06738 12.5684 8.18333L12.556 8.25079L12.3476 9.57125L12.3381 9.61975C12.3356 9.63513 12.3313 9.64279 12.325 9.64799C12.3194 9.65266 12.3113 9.65584 12.3034 9.65584H11.2869Z" fill="#253B80"/>
<path d="M14.8462 4.80957C14.8399 4.84994 14.8327 4.89121 14.8245 4.93361C14.5455 6.36599 13.5911 6.86082 12.372 6.86082H11.7514C11.6023 6.86082 11.4767 6.96907 11.4534 7.11612L11.1356 9.13154L11.0457 9.70279C11.0305 9.79933 11.105 9.88639 11.2024 9.88639H12.3033C12.4336 9.88639 12.5443 9.79167 12.5648 9.66312L12.5757 9.60716L12.783 8.29183L12.7963 8.2197C12.8166 8.0907 12.9275 7.99597 13.0579 7.99597H13.2225C14.2891 7.99597 15.124 7.56294 15.3681 6.30984C15.47 5.78636 15.4172 5.34928 15.1475 5.04187C15.0659 4.94917 14.9646 4.87227 14.8462 4.80957Z" fill="#179BD7"/>
<path d="M14.5543 4.69291C14.5117 4.6805 14.4677 4.66923 14.4225 4.65908C14.3772 4.64916 14.3307 4.64036 14.283 4.63269C14.1156 4.60563 13.9322 4.59277 13.7358 4.59277H12.0777C12.0368 4.59277 11.9981 4.60202 11.9633 4.61871C11.8869 4.65547 11.8301 4.72787 11.8163 4.8165L11.4635 7.05067L11.4534 7.11584C11.4766 6.96879 11.6022 6.86053 11.7513 6.86053H12.372C13.591 6.86053 14.5455 6.36549 14.8245 4.93333C14.8328 4.89093 14.8398 4.84966 14.8461 4.80929C14.7755 4.77185 14.699 4.73982 14.6167 4.71253C14.5965 4.70576 14.5755 4.69923 14.5543 4.69291Z" fill="#222D65"/>
<path d="M11.8162 4.81648C11.83 4.72784 11.8869 4.65545 11.9633 4.61891C11.9983 4.60222 12.0368 4.59297 12.0776 4.59297H13.7358C13.9322 4.59297 14.1156 4.60583 14.2829 4.63289C14.3307 4.64056 14.3772 4.64936 14.4225 4.65928C14.4677 4.66943 14.5116 4.68071 14.5543 4.69311C14.5754 4.69942 14.5964 4.70596 14.6169 4.71251C14.6992 4.73979 14.7757 4.77205 14.8463 4.80926C14.9293 4.27993 14.8456 3.91952 14.5595 3.59317C14.2439 3.23389 13.6744 3.08008 12.9457 3.08008H10.8302C10.6813 3.08008 10.5544 3.18833 10.5313 3.33561L9.65021 8.92101C9.63281 9.03151 9.71805 9.13123 9.82946 9.13123H11.1356L11.4635 7.05064L11.8162 4.81648Z" fill="#253B80"/>
</g>
<defs>
<clipPath id="clip0_1241_45762">
<rect width="24.789" height="16.526" fill="white" transform="translate(-0.00146484 0.237305)"/>
</clipPath>
</defs>
</svg>
