<svg width="41" height="17" viewBox="0 0 41 17" fill="none" xmlns="http://www.w3.org/2000/svg">
<rect x="0.496094" y="0.237305" width="40.3968" height="16.526" rx="1.91825" fill="#F9F9F9"/>
<path d="M21.0115 9.15003C20.4694 9.15003 19.9709 9.01886 19.5654 8.80023L19.7027 7.89423C20.114 8.11286 20.538 8.23762 20.9987 8.23762C21.51 8.23762 21.7339 8.05048 21.7339 7.72516C21.7339 6.98823 19.584 7.30073 19.584 5.73243C19.584 4.93896 20.0953 4.2959 21.279 4.2959C21.7339 4.2959 22.2266 4.38976 22.5878 4.5396L22.4569 5.42635C22.0707 5.30159 21.6845 5.22638 21.3291 5.22638C20.7497 5.22638 20.5938 5.42635 20.5938 5.67588C20.5938 6.40639 22.7437 6.06941 22.7437 7.65578C22.7437 8.57985 22.1015 9.14828 21.0115 9.14828V9.15003Z" fill="#005DA0"/>
<path d="M26.7954 8.14515V9.06339H23.6177V4.37891H26.7954V5.30939H24.6705V6.23987H26.3963V7.07649H24.6705V8.14456H26.7954V8.14515Z" fill="#005DA0"/>
<path d="M29.401 7.53842H28.778V9.06241H27.7246V4.37793H29.401C30.6976 4.37793 31.2269 4.88981 31.2269 5.98295C31.2269 6.96999 30.7034 7.53842 29.401 7.53842ZM29.401 5.25886H28.778V6.69539H29.401C29.9181 6.69539 30.1426 6.56421 30.1426 5.97712C30.1426 5.39003 29.9431 5.25886 29.401 5.25886Z" fill="#005DA0"/>
<path d="M34.4378 8.15058H32.7428L32.4811 9.06241H31.3718L32.9854 4.37793H34.2383L35.8711 9.06241H34.6996L34.4378 8.15058ZM33.4653 5.66463L32.9976 7.27024H34.1877L33.7392 5.66463L33.6142 5.17141H33.5956L33.4647 5.66463H33.4653Z" fill="#005DA0"/>
<path d="M20.9733 12.1036L20.9617 12.5443H19.5872V10.3691H20.0793V12.1036H20.9733Z" fill="#005DA0"/>
<path d="M22.2873 12.3762L22.2785 12.3733C22.1715 12.501 22.0034 12.5733 21.8039 12.5733C21.4712 12.5733 21.26 12.3844 21.26 11.9903C21.26 11.6655 21.4857 11.4422 21.8853 11.4422C22.0156 11.4422 22.1285 11.4626 22.2209 11.4918V11.3903C22.2209 11.2131 22.1285 11.1321 21.8882 11.1321C21.6945 11.1321 21.5671 11.1612 21.4048 11.2277L21.367 10.868C21.5439 10.7928 21.7434 10.752 21.9691 10.752C22.4873 10.752 22.6665 10.9752 22.6665 11.4568V12.5447H22.3222L22.2873 12.3768V12.3762ZM22.2204 11.7903C22.1773 11.7728 22.0901 11.7524 21.9714 11.7524C21.7719 11.7524 21.6788 11.8311 21.6788 11.9844C21.6788 12.1558 21.78 12.2165 21.9278 12.2165C22.0755 12.2165 22.2198 12.1238 22.2198 12.0107V11.7903H22.2204Z" fill="#005DA0"/>
<path d="M23.6359 12.5797C23.4248 12.5797 23.234 12.5389 23.0862 12.4579L23.1328 12.0865C23.2776 12.1704 23.483 12.2113 23.6336 12.2113C23.8133 12.2113 23.8884 12.139 23.8884 12.034C23.8884 11.7524 23.0752 11.9151 23.0752 11.3006C23.0752 10.9846 23.2893 10.7578 23.7406 10.7578C23.9169 10.7578 24.0908 10.7928 24.238 10.8534L24.2007 11.2219C24.0559 11.1613 23.8622 11.1321 23.7319 11.1321C23.5842 11.1321 23.5033 11.1904 23.5033 11.2802C23.5033 11.5466 24.3049 11.3875 24.3049 11.9938C24.3049 12.3448 24.1112 12.5797 23.6365 12.5797H23.6359Z" fill="#005DA0"/>
<path d="M25.1868 11.1231V12.0221C25.1868 12.1585 25.256 12.2162 25.3951 12.2162C25.4416 12.2162 25.5021 12.2075 25.5341 12.1958L25.5603 12.5235C25.4992 12.5497 25.3834 12.573 25.2595 12.573C24.9094 12.573 24.7384 12.3702 24.7384 12.0361V11.1225H24.5417V10.7861H24.7587L24.8337 10.3885L25.1868 10.3564V10.7855H25.5777V11.1219H25.1868V11.1231Z" fill="#005DA0"/>
<path d="M26.447 12.5797C26.2358 12.5797 26.045 12.5389 25.8973 12.4579L25.9438 12.0865C26.0887 12.1704 26.294 12.2113 26.4446 12.2113C26.6244 12.2113 26.6994 12.139 26.6994 12.034C26.6994 11.7524 25.8862 11.9151 25.8862 11.3006C25.8862 10.9846 26.1003 10.7578 26.5517 10.7578C26.7279 10.7578 26.9018 10.7928 27.049 10.8534L27.0118 11.2219C26.8669 11.1613 26.6732 11.1321 26.5429 11.1321C26.3952 11.1321 26.3143 11.1904 26.3143 11.2802C26.3143 11.5466 27.1159 11.3875 27.1159 11.9938C27.1159 12.3448 26.9222 12.5797 26.4475 12.5797H26.447Z" fill="#005DA0"/>
<path d="M28.6375 11.2155C28.5479 11.1834 28.4409 11.1607 28.3397 11.1607C28.0128 11.1607 27.9058 11.2971 27.9058 11.6685C27.9058 12.0398 28.0593 12.1932 28.3316 12.1932C28.4473 12.1932 28.5572 12.1699 28.6497 12.1267L28.6817 12.4777C28.5776 12.5418 28.4211 12.5791 28.2333 12.5791C27.715 12.5791 27.4404 12.283 27.4404 11.6685C27.4404 11.0855 27.6807 10.7578 28.242 10.7578C28.3897 10.7578 28.5543 10.7899 28.6643 10.8336L28.6381 11.2161L28.6375 11.2155Z" fill="#005DA0"/>
<path d="M30.1164 12.5442V11.4248C30.1164 11.2447 30.0268 11.152 29.8354 11.152C29.7051 11.152 29.5923 11.2103 29.5376 11.2855V12.5442H29.0891V10.288L29.5376 10.2646V10.6646L29.5318 10.8966L29.5405 10.9025C29.6708 10.7923 29.8296 10.7515 29.9773 10.7515C30.3479 10.7515 30.5648 11.001 30.5648 11.4243V12.5436H30.1164V12.5442Z" fill="#005DA0"/>
<path d="M31.0359 12.5442V10.798L31.3948 10.7805L31.4355 11.0738H31.4442C31.5542 10.8622 31.7252 10.7578 31.9247 10.7578C32.0032 10.7578 32.0695 10.7695 32.1155 10.784L32.0864 11.2277C32.0317 11.2102 31.9648 11.1986 31.8956 11.1986C31.6612 11.1986 31.4873 11.37 31.4873 11.6626V12.5442H31.0359Z" fill="#005DA0"/>
<path d="M32.7757 10.5983C32.6024 10.5983 32.5181 10.5487 32.5181 10.407C32.5181 10.2823 32.6018 10.2129 32.7757 10.2129C32.9497 10.2129 33.0305 10.2794 33.0305 10.407C33.0305 10.5347 32.9526 10.5983 32.7757 10.5983ZM32.5442 12.5443V10.7982L33.0043 10.7778V12.5443H32.5442Z" fill="#005DA0"/>
<path d="M33.65 12.544V11.1203H33.4302V10.7868H33.65V10.7111C33.65 10.447 33.8321 10.2295 34.2521 10.2295C34.3504 10.2295 34.4603 10.2441 34.5359 10.2668L34.5098 10.5571C34.458 10.5455 34.3998 10.5397 34.3422 10.5397C34.166 10.5397 34.0991 10.609 34.0991 10.7221V10.7863H34.4725V11.1197H34.0991V12.5435H33.6506L33.65 12.544Z" fill="#005DA0"/>
<path d="M35.3914 11.1231V12.0221C35.3914 12.1585 35.4606 12.2162 35.5997 12.2162C35.6462 12.2162 35.7067 12.2075 35.7387 12.1958L35.7649 12.5235C35.7038 12.5497 35.588 12.573 35.4641 12.573C35.114 12.573 34.9429 12.3702 34.9429 12.0361V11.1225H34.7463V10.7861H34.9633L35.0383 10.3885L35.3914 10.3564V10.7855H35.7817V11.1219H35.3914V11.1231Z" fill="#005DA0"/>
<path d="M11.5963 5.4007L9.58955 3.89012L7.58335 2.37896C7.44375 2.27402 7.24481 2.302 7.14011 2.44134L5.37356 4.79787C5.34622 4.8346 5.32877 4.87541 5.31946 4.91797C5.28864 5.03807 5.33052 5.17099 5.4358 5.25028L6.63114 6.15045L8.24646 7.36661L9.44181 8.26677C9.54709 8.34606 9.68611 8.34956 9.79256 8.28659C9.83036 8.26561 9.86527 8.23762 9.8926 8.20089L11.6592 5.84437C11.7639 5.70445 11.7354 5.50564 11.5958 5.40011L11.5963 5.4007ZM7.45305 2.55969L8.6484 3.45986L9.45635 4.06794L10.2643 4.67602L11.4596 5.5756C11.505 5.61 11.5149 5.67471 11.4812 5.7196L11.1944 6.11547L9.84142 5.09637L8.37559 3.99273L7.02261 2.97363L7.30938 2.57777C7.34312 2.53288 7.40768 2.52355 7.45363 2.55794L7.45305 2.55969ZM9.71461 8.07729C9.70007 8.09712 9.67738 8.10703 9.65412 8.11169C9.62794 8.11461 9.60118 8.10878 9.57908 8.09245L8.37675 7.18704L6.76842 5.97613L5.5661 5.07071C5.54399 5.05381 5.53061 5.0299 5.52654 5.00367C5.5248 4.98035 5.52829 4.95586 5.54283 4.93604L5.87089 4.4982C5.87089 4.4982 6.23095 4.03179 6.5468 3.60969L7.89978 4.62879L9.3656 5.73243L10.7186 6.75153C10.4027 7.17305 10.0427 7.64004 10.0427 7.64004L9.71461 8.07788V8.07729Z" fill="#AEB1BC"/>
<path d="M11.9567 9.00479L14.9838 4.94763L15.2926 4.53953C15.2926 4.53953 15.2985 4.53078 15.3019 4.52612C15.3241 4.4958 15.3194 4.45557 15.2892 4.434L14.4323 3.81193C14.4027 3.79036 14.3631 3.79852 14.341 3.82884C14.3381 3.83292 14.3311 3.84108 14.3311 3.84108L14.2154 3.98917L10.4769 9.00421H6.35984L4.81665 14.1015H15.117L13.6622 9.00421H11.9561L11.9567 9.00479ZM5.09702 13.8992L6.50642 9.20768H10.3257L9.99648 9.64902L9.52299 10.3049L9.4689 10.4017L9.41887 10.5142L9.36769 10.6413L9.31475 10.776L9.26357 10.9229L9.21354 11.0669L9.16584 11.2121L9.11931 11.3543L9.07743 11.4896L9.03846 11.6143L9.00414 11.7228L8.97796 11.8132L8.95819 11.8825L8.94132 11.9257C8.94132 11.9257 8.93841 11.935 8.93027 11.9461C8.92096 11.9595 8.86279 12.0125 8.81568 11.977C8.76856 11.9414 8.77554 11.8242 8.77961 11.7677C8.79357 11.5939 8.80753 11.4202 8.82149 11.247C8.82615 11.1864 8.75169 11.1514 8.70399 11.1794C8.49343 11.3013 8.36779 11.4488 8.25261 11.6173C8.26308 11.5776 8.27413 11.538 8.2846 11.4989C8.33288 11.3199 8.40152 11.1345 8.4277 10.9509C8.44282 10.8459 8.41606 10.7212 8.29333 10.7008C8.15547 10.678 8.06531 10.8232 7.99784 10.9188C7.79367 11.2074 7.67326 11.5741 7.42023 11.8254C7.32484 11.9198 7.21897 11.9892 7.0817 11.9502C6.9229 11.9053 6.86124 12.0924 7.14161 12.1181C7.41733 12.1431 7.62208 11.851 7.74772 11.6464C7.83846 11.4983 7.91815 11.3432 8.00715 11.194C8.04961 11.1223 8.0944 11.0512 8.14326 10.9835C8.1642 10.955 8.20375 10.8774 8.24098 10.8669C8.28984 10.8535 8.27763 10.8815 8.27414 10.9206C8.26715 11.008 8.23051 11.0978 8.20782 11.1818C8.18281 11.2739 8.1578 11.366 8.13337 11.4575C8.07986 11.6546 8.02634 11.8516 7.97341 12.0493C7.94898 12.1385 8.06706 12.1799 8.1165 12.1099C8.31311 11.8295 8.41083 11.5916 8.65281 11.4039C8.64757 11.4657 8.64292 11.5269 8.63768 11.5887C8.62954 11.6907 8.61034 11.7986 8.61732 11.9006C8.62838 12.0673 8.7546 12.1828 8.91165 12.1099C8.99425 12.0714 9.05358 12.0137 9.05358 12.0137L9.06347 12.0073L9.09663 11.9822L9.15712 11.942L9.23972 11.8849L9.33162 11.8161L9.43283 11.7444L9.55208 11.6604L9.67307 11.5712L9.79406 11.482L9.91504 11.3928L10.0331 11.3024L10.1436 11.2191L10.2454 11.1357L10.3344 11.0663L10.4054 11.0004L10.4612 10.9474L10.463 10.9445L10.4647 10.9456L10.8411 10.4996L11.8037 9.20943H13.5121L14.8413 13.9009H5.09702V13.8992Z" fill="#005DA0"/>
<path d="M15.497 4.65651L14.0581 6.5752C14.0411 6.59785 14.0457 6.63001 14.0683 6.64704L14.1813 6.73216C14.2038 6.74918 14.2359 6.74462 14.2529 6.72197L15.6918 4.80329C15.7088 4.78064 15.7042 4.74847 15.6816 4.73145L15.5686 4.64633C15.546 4.6293 15.514 4.63386 15.497 4.65651Z" fill="#005DA0"/>
<path d="M9.90222 12.9002H12.7647L12.7042 12.6729H9.90222H7.10087L7.03979 12.9002H9.90222Z" fill="#005DA0"/>
</svg>
