<svg width="25" height="17" viewBox="0 0 25 17" fill="none" xmlns="http://www.w3.org/2000/svg">
<g clip-path="url(#clip0_1241_45764)">
<path d="M-0.00317383 2.30305C-0.00317383 1.16217 0.921693 0.237305 2.06257 0.237305H22.7201C23.8609 0.237305 24.7858 1.16217 24.7858 2.30305V14.6975C24.7858 15.8384 23.8609 16.7633 22.7201 16.7633H2.06257C0.921693 16.7633 -0.00317383 15.8384 -0.00317383 14.6975V2.30305Z" fill="#F9F9F9"/>
<path d="M11.8324 9.05543V11.4433H11.0696V5.54629H13.0927C13.3342 5.54129 13.5743 5.58382 13.7991 5.67144C14.024 5.75906 14.2291 5.89004 14.4028 6.05681C14.5781 6.21345 14.7177 6.40556 14.8121 6.62022C14.9065 6.83489 14.9535 7.06712 14.95 7.30133C14.955 7.5368 14.9087 7.77055 14.8143 7.98658C14.7198 8.20261 14.5794 8.3958 14.4028 8.55292C14.049 8.88793 13.6123 9.05527 13.0927 9.05496H11.8324V9.05543ZM11.8324 6.27231V8.33083H13.1117C13.2519 8.33496 13.3915 8.30997 13.5214 8.25747C13.6514 8.20497 13.7689 8.12611 13.8664 8.02593C13.9634 7.93227 14.0405 7.82024 14.0932 7.69647C14.1459 7.5727 14.173 7.4397 14.173 7.30533C14.173 7.17097 14.1459 7.03797 14.0932 6.9142C14.0405 6.79042 13.9634 6.67839 13.8664 6.58473C13.7701 6.48244 13.653 6.40165 13.5229 6.34771C13.3928 6.29376 13.2526 6.2679 13.1117 6.27184H11.8324V6.27231Z" fill="#5F6368"/>
<path d="M16.7077 7.27734C17.2715 7.27734 17.7166 7.42697 18.0429 7.72622C18.3691 8.02547 18.5321 8.43576 18.5318 8.9571V11.4438H17.8022V10.8839H17.769C17.4531 11.345 17.033 11.5755 16.5087 11.5755C16.0611 11.5755 15.6867 11.4438 15.3853 11.1803C15.2407 11.0594 15.1251 10.9079 15.0469 10.737C14.9687 10.566 14.9299 10.3799 14.9333 10.1922C14.9333 9.77471 15.0922 9.44268 15.41 9.19612C15.7277 8.94957 16.1519 8.82598 16.6826 8.82535C17.1355 8.82535 17.5086 8.90769 17.8017 9.07238V8.89923C17.8026 8.77125 17.7747 8.64469 17.7202 8.52872C17.6657 8.41275 17.5859 8.31028 17.4866 8.22873C17.2849 8.048 17.022 7.94938 16.7503 7.95254C16.3242 7.95254 15.987 8.13102 15.7388 8.48799L15.0669 8.06782C15.4365 7.54083 15.9834 7.27734 16.7077 7.27734ZM15.7208 10.2087C15.7203 10.3051 15.7429 10.4002 15.787 10.4862C15.831 10.5721 15.895 10.6464 15.9738 10.7027C16.1425 10.8345 16.3519 10.9043 16.5665 10.9003C16.8884 10.8998 17.197 10.7726 17.4245 10.5465C17.6772 10.3103 17.8036 10.0332 17.8036 9.71511C17.5657 9.5269 17.2341 9.43279 16.8086 9.43279C16.4987 9.43279 16.2404 9.50698 16.0335 9.65535C15.8245 9.80592 15.7208 9.98895 15.7208 10.2087Z" fill="#5F6368"/>
<path d="M22.7203 7.40918L20.1731 13.2224H19.3857L20.3309 11.1884L18.656 7.40918H19.4852L20.6957 10.3076H20.7123L21.8897 7.40918H22.7203Z" fill="#5F6368"/>
<path d="M8.74972 8.54138C8.75001 8.31052 8.73035 8.08006 8.69097 7.85254H5.47388V9.15729H7.31648C7.27877 9.36568 7.19897 9.56433 7.08187 9.74126C6.96478 9.91819 6.81282 10.0697 6.63516 10.1868V11.0337H7.73484C8.37873 10.4442 8.74972 9.57229 8.74972 8.54138Z" fill="#4285F4"/>
<path d="M5.47397 11.8517C6.39456 11.8517 7.1697 11.5515 7.73494 11.0339L6.63525 10.187C6.32918 10.3931 5.93498 10.5107 5.47397 10.5107C4.58418 10.5107 3.82894 9.91501 3.55888 9.1123H2.42603V9.98512C2.70996 10.5462 3.14534 11.0179 3.68355 11.3475C4.22177 11.6771 4.84165 11.8516 5.47397 11.8517Z" fill="#34A853"/>
<path d="M3.55885 9.11293C3.41607 8.6923 3.41607 8.2368 3.55885 7.81617V6.94336H2.42599C2.18714 7.41536 2.06274 7.9363 2.06274 8.46455C2.06274 8.9928 2.18714 9.51374 2.42599 9.98574L3.55885 9.11293Z" fill="#FBBC04"/>
<path d="M5.47397 6.41738C5.96046 6.40948 6.43054 6.59202 6.78261 6.92554L7.75626 5.95862C7.13886 5.38274 6.32095 5.06657 5.47397 5.07639C4.84165 5.07642 4.22177 5.25098 3.68355 5.58059C3.14534 5.91019 2.70996 6.38186 2.42603 6.94295L3.55888 7.81576C3.82894 7.01305 4.58418 6.41738 5.47397 6.41738Z" fill="#EA4335"/>
</g>
<defs>
<clipPath id="clip0_1241_45764">
<rect width="24.789" height="16.526" fill="white" transform="translate(-0.00317383 0.237305)"/>
</clipPath>
</defs>
</svg>
