<svg width="26" height="17" viewBox="0 0 26 17" fill="none" xmlns="http://www.w3.org/2000/svg">
<g clip-path="url(#clip0_1241_45761)">
<path d="M0.499268 2.30305C0.499268 1.16217 1.42413 0.237305 2.56502 0.237305H23.2225C24.3634 0.237305 25.2882 1.16217 25.2882 2.30305V14.6975C25.2882 15.8384 24.3634 16.7633 23.2225 16.7633H2.56502C1.42413 16.7633 0.499268 15.8384 0.499268 14.6975V2.30305Z" fill="#F9F9F9"/>
<path d="M21.8333 5.41992H20.5347C20.1421 5.41992 19.8401 5.54073 19.6589 5.93334L17.1824 11.5809H18.934C18.934 11.5809 19.236 10.8259 19.2964 10.6447C19.4776 10.6447 21.1991 10.6447 21.4407 10.6447C21.5011 10.8561 21.6521 11.5507 21.6521 11.5507H23.2226L21.8333 5.41992ZM19.7797 9.37625C19.9307 9.01384 20.4441 7.6548 20.4441 7.6548C20.4441 7.685 20.5951 7.29238 20.6555 7.08098L20.7763 7.62459C20.7763 7.62459 21.1085 9.10444 21.1689 9.40645H19.7797V9.37625Z" fill="#3362AB"/>
<path d="M17.3032 9.55724C17.3032 10.8257 16.1555 11.6713 14.3737 11.6713C13.6187 11.6713 12.8938 11.5203 12.5012 11.3391L12.7428 9.94985L12.9542 10.0405C13.4979 10.2821 13.8603 10.3727 14.5247 10.3727C15.0079 10.3727 15.5213 10.1915 15.5213 9.76865C15.5213 9.49684 15.3099 9.31563 14.6455 9.01362C14.0113 8.71161 13.1656 8.2284 13.1656 7.35257C13.1656 6.14453 14.3435 5.3291 16.0045 5.3291C16.6388 5.3291 17.1824 5.44991 17.5146 5.60091L17.273 6.92975L17.1522 6.80895C16.8502 6.68815 16.4576 6.56734 15.8837 6.56734C15.2495 6.59754 14.9475 6.86935 14.9475 7.11096C14.9475 7.38277 15.3099 7.59418 15.8837 7.86598C16.8502 8.319 17.3032 8.83242 17.3032 9.55724Z" fill="#3362AB"/>
<path d="M2.56494 5.48018L2.59514 5.35938H5.19243C5.55484 5.35938 5.82665 5.48018 5.91725 5.87279L6.49107 8.59088C5.91725 7.14123 4.58841 5.96339 2.56494 5.48018Z" fill="#F9B50B"/>
<path d="M10.1455 5.41985L7.51798 11.5507H5.73612L4.22607 6.41648C5.31331 7.11111 6.21934 8.19834 6.55155 8.95337L6.73276 9.58759L8.36361 5.38965H10.1455V5.41985Z" fill="#3362AB"/>
<path d="M10.84 5.38965H12.501L11.444 11.5507H9.78296L10.84 5.38965Z" fill="#3362AB"/>
</g>
<defs>
<clipPath id="clip0_1241_45761">
<rect width="24.789" height="16.526" fill="white" transform="translate(0.499268 0.237305)"/>
</clipPath>
</defs>
</svg>
